<?xml version="1.0" encoding="UTF-8" standalone="no"?>
<svg width="48px" height="48px" viewBox="0 0 48 48" version="1.1" xmlns="http://www.w3.org/2000/svg" xmlns:xlink="http://www.w3.org/1999/xlink" xmlns:sketch="http://www.bohemiancoding.com/sketch/ns">
    <!-- Generator: Sketch 3.3.2 (12043) - http://www.bohemiancoding.com/sketch -->
    <title>Artboard 1</title>
    <desc>Created with Sketch.</desc>
    <defs></defs>
    <g id="Page-1" stroke="none" stroke-width="1" fill="none" fill-rule="evenodd" sketch:type="MSPage">
        <g id="Artboard-1" sketch:type="MSArtboardGroup" fill="#000000">
            <g id="icon-usb" sketch:type="MSLayerGroup" transform="translate(14.000000, 4.000000)">
                <path d="M10.1272727,0.141818182 L7.6,4.41409091 L9.4,4.41409091 L9.4,26.2363636 L4.8,21.9818182 C4.50909091,21.6272727 4.29090909,21.1486364 4.29090909,20.6522727 L4.29090909,17.0890909 C5.14545455,16.8054545 5.76363636,16.0077273 5.76363636,15.0859091 C5.76363636,13.9159091 4.78181818,12.9586364 3.58181818,12.9586364 C2.36363636,12.9586364 1.4,13.9159091 1.4,15.0859091 C1.4,16.0254545 2.01818182,16.8054545 2.87272727,17.0890909 L2.87272727,20.6168182 C2.87272727,21.5740909 3.41818182,22.5668182 4.03636364,23.205 C4.01818182,23.1872727 4,23.1695455 4.03636364,23.205 C4.05454545,23.2227273 8.92727273,27.7077273 8.92727273,27.7077273 C9.21818182,28.0622727 9.43636364,28.5409091 9.43636364,29.0195455 L9.43636364,31.4836364 C7.76363636,31.8027273 6.50909091,33.2563636 6.50909091,34.9759091 C6.50909091,36.9436364 8.14545455,38.5390909 10.1636364,38.5390909 C12.1818182,38.5390909 13.8181818,36.9436364 13.8181818,34.9759091 C13.8181818,33.2563636 12.5636364,31.8027273 10.8909091,31.4836364 L10.8909091,29.055 L10.8909091,29.0372727 L10.8909091,23.6659091 C10.9090909,23.1872727 11.1090909,22.7086364 11.4,22.3540909 C11.4,22.3540909 16.2727273,17.8690909 16.2909091,17.8513636 C16.3272727,17.8159091 16.3090909,17.8336364 16.2909091,17.8513636 C16.9272727,17.2131818 17.4545455,16.2204545 17.4545455,15.2631818 L17.4545455,11.8595455 L18.9272727,11.8595455 L18.9272727,7.62272727 L14.5454545,7.62272727 L14.5454545,11.895 L16.0181818,11.895 L16.0181818,15.3340909 C16,15.8127273 15.8,16.2913636 15.5090909,16.6636364 L10.9090909,20.9181818 L10.9090909,4.43181818 L12.7090909,4.43181818 L10.1272727,0.141818182 L10.1272727,0.141818182 Z" id="path1334" sketch:type="MSShapeGroup"></path>
            </g>
        </g>
    </g>
</svg>