<?xml version="1.0" encoding="utf-8"?>
<!-- Generator: Adobe Illustrator 18.0.0, SVG Export Plug-In . SVG Version: 6.00 Build 0)  -->
<!DOCTYPE svg PUBLIC "-//W3C//DTD SVG 1.1//EN" "http://www.w3.org/Graphics/SVG/1.1/DTD/svg11.dtd">
<svg version="1.1" id="Layer_1" xmlns="http://www.w3.org/2000/svg" xmlns:xlink="http://www.w3.org/1999/xlink" x="0px" y="0px"
	 width="24px" height="24px" viewBox="0 0 24 24" enable-background="new 0 0 24 24" xml:space="preserve">
<path fill="#F09335" d="M3,12c0,2.21,0.91,4.2,2.36,5.64L3,20h6v-6l-2.24,2.24C5.68,15.15,5,13.66,5,12c0-2.61,1.67-4.83,4-5.65
	V4.26C5.55,5.15,3,8.27,3,12z M11,17h2v-2h-2V17z M21,4h-6v6l2.24-2.24C18.32,8.85,19,10.34,19,12c0,2.61-1.67,4.83-4,5.65v2.09
	c3.45-0.89,6-4.01,6-7.74c0-2.21-0.91-4.2-2.36-5.64L21,4z M11,13h2V7h-2V13z"/>
</svg>
