<?xml version="1.0" encoding="utf-8"?>
<!-- Generator: Adobe Illustrator 21.0.2, SVG Export Plug-In . SVG Version: 6.00 Build 0)  -->
<svg version="1.1" id="Layer_1" xmlns="http://www.w3.org/2000/svg" xmlns:xlink="http://www.w3.org/1999/xlink" x="0px" y="0px"
	 width="48px" height="48px" viewBox="0 0 48 48" enable-background="new 0 0 48 48" xml:space="preserve">
<title>Artboard 3</title>
<g>
	<path fill="none" stroke="#000000" stroke-width="1.2" stroke-miterlimit="10" d="M41.5,38.8L21,18.4l-2.4,2.4l20.5,20.5
		C41.1,40.4,41.5,38.8,41.5,38.8L41.5,38.8z"/>
	<path fill="none" stroke="#000000" stroke-width="1.2" stroke-miterlimit="10" d="M37.2,39.3c2.2-1,2.4-2.4,2.4-2.4"/>
	<path fill="none" stroke="#000000" stroke-width="1.2" stroke-miterlimit="10" d="M21.3,18.1l1.4-1.4c0.4-0.4,0.5-1.1,0.2-1.4
		L12.7,6.3c-0.9-0.9-1.7-1.2-2.9-0.1L9.5,6.4L6.6,9.3L6.4,9.5c-1.1,1.1-0.8,2.2,0.1,2.9l9.1,10.3c0.3,0.3,1,0.2,1.4-0.2l1.4-1.4
		L21.3,18.1z"/>
	
		<ellipse transform="matrix(0.7071 -0.7071 0.7071 0.7071 -6.5128 16.1889)" fill="none" stroke="#000000" stroke-width="1.2" stroke-miterlimit="10" cx="16.3" cy="16" rx="1.6" ry="1.6"/>
</g>
</svg>
