<?xml version="1.0" encoding="utf-8"?>
<!-- Generator: Adobe Illustrator 18.0.0, SVG Export Plug-In . SVG Version: 6.00 Build 0)  -->
<!DOCTYPE svg PUBLIC "-//W3C//DTD SVG 1.1//EN" "http://www.w3.org/Graphics/SVG/1.1/DTD/svg11.dtd">
<svg version="1.1" id="Layer_5" xmlns="http://www.w3.org/2000/svg" xmlns:xlink="http://www.w3.org/1999/xlink" x="0px" y="0px"
	 width="24px" height="24px" viewBox="0 0 24 24" enable-background="new 0 0 24 24" xml:space="preserve">
<circle cx="12.9" cy="11.87" r="3.31"/>
<circle cx="19.31" cy="8.12" r="1.57"/>
<circle cx="7.74" cy="16.33" r="1.58"/>
<circle cx="2.63" cy="7.69" r="1.58"/>
<g>
	<defs>
		<polygon id="SVGID_1_" points="11.44,9.34 9.94,11.12 2.28,12.64 4.9,7.45 8.03,3.5 		"/>
	</defs>
	<clipPath id="SVGID_2_">
		<use xlink:href="#SVGID_1_"  overflow="visible"/>
	</clipPath>
	<path clip-path="url(#SVGID_2_)" fill="none" stroke="#000000" stroke-miterlimit="10" d="M18.49,12.03c0,3.03-2.46,5.49-5.49,5.49
		c-3.03,0-5.49-2.46-5.49-5.49c0-3.03,2.46-5.49,5.49-5.49C16.04,6.55,18.49,9,18.49,12.03z"/>
	<circle clip-path="url(#SVGID_2_)" fill="none" stroke="#000000" stroke-miterlimit="10" cx="12.9" cy="12.03" r="7.99"/>
</g>
<g>
	<defs>
		<polygon id="SVGID_3_" points="14.35,14.73 15.85,12.96 23.51,11.43 20.89,16.63 17.76,20.58 		"/>
	</defs>
	<clipPath id="SVGID_4_">
		<use xlink:href="#SVGID_3_"  overflow="visible"/>
	</clipPath>
	<circle clip-path="url(#SVGID_4_)" fill="none" stroke="#000000" stroke-miterlimit="10" cx="12.79" cy="12.04" r="5.49"/>
	<circle clip-path="url(#SVGID_4_)" fill="none" stroke="#000000" stroke-miterlimit="10" cx="12.89" cy="12.04" r="7.99"/>
</g>
<g>
</g>
<g>
</g>
<g>
</g>
<g>
</g>
<g>
</g>
<g>
</g>
<g>
</g>
<g>
</g>
<g>
</g>
<g>
</g>
<g>
</g>
<g>
</g>
<g>
</g>
<g>
</g>
<g>
</g>
</svg>
