<?xml version="1.0" encoding="utf-8"?>
<!-- Generator: Adobe Illustrator 18.1.1, SVG Export Plug-In . SVG Version: 6.00 Build 0)  -->
<!DOCTYPE svg PUBLIC "-//W3C//DTD SVG 1.1//EN" "http://www.w3.org/Graphics/SVG/1.1/DTD/svg11.dtd">
<svg version="1.1" id="Layer_3" xmlns="http://www.w3.org/2000/svg" xmlns:xlink="http://www.w3.org/1999/xlink" x="0px" y="0px"
	 width="24px" height="24px" viewBox="0 0 24 24" enable-background="new 0 0 24 24" xml:space="preserve">
<g id="cogwheel">
	<path d="M19.93,12.98C19.97,12.64,20,12.3,20,11.95c0-0.35-0.03-0.69-0.07-1.02l-2.1-0.53c-0.14-0.51-0.34-0.99-0.6-1.44l1.11-1.85
		c-0.42-0.54-0.91-1.03-1.45-1.45l-1.85,1.11c-0.45-0.26-0.93-0.46-1.44-0.6l-0.53-2.1C12.74,4.03,12.4,4,12.05,4
		c-0.35,0-0.69,0.03-1.02,0.07l-0.53,2.1C9.99,6.31,9.5,6.51,9.06,6.77L7.2,5.66C6.66,6.08,6.17,6.56,5.75,7.11l1.11,1.85
		c-0.26,0.45-0.46,0.93-0.6,1.44l-2.1,0.53C4.13,11.26,4.1,11.6,4.1,11.95c0,0.35,0.03,0.69,0.07,1.02l2.1,0.53
		c0.14,0.51,0.34,0.99,0.6,1.44L5.75,16.8c0.42,0.54,0.91,1.03,1.45,1.45l1.85-1.11c0.45,0.26,0.93,0.46,1.44,0.6l0.53,2.1
		c0.34,0.04,0.68,0.07,1.02,0.07c0.35,0,0.69-0.03,1.02-0.07l0.53-2.1c0.51-0.14,0.99-0.34,1.44-0.6l1.86,1.11
		c0.54-0.42,1.03-0.91,1.45-1.45l-1.11-1.85c0.26-0.45,0.46-0.93,0.6-1.44L19.93,12.98z M12.05,15.23c-1.81,0-3.28-1.47-3.28-3.28
		c0-1.81,1.47-3.28,3.28-3.28c1.81,0,3.28,1.47,3.28,3.28C15.33,13.76,13.86,15.23,12.05,15.23z"/>
</g>
<g>
</g>
<g>
</g>
<g>
</g>
<g>
</g>
<g>
</g>
<g>
</g>
<g>
</g>
<g>
</g>
<g>
</g>
<g>
</g>
<g>
</g>
<g>
</g>
<g>
</g>
<g>
</g>
<g>
</g>
</svg>
