<?xml version="1.0" encoding="UTF-8"?>
<svg width="18px" height="18px" viewBox="0 0 18 18" version="1.1" xmlns="http://www.w3.org/2000/svg" xmlns:xlink="http://www.w3.org/1999/xlink">
    <!-- Generator: Sketch 41.2 (35397) - http://www.bohemiancoding.com/sketch -->
    <title>Artboard</title>
    <desc>Created with Sketch.</desc>
    <defs></defs>
    <g id="Page-1" stroke="none" stroke-width="1" fill="none" fill-rule="evenodd">
        <g id="Artboard" fill="#000000">
            <path d="M9.5,5 C10.33,5 11,4.33 11,3.5 C11,2.67 10.33,2 9.5,2 C8.67,2 8,2.67 8,3.5 C8,4.33 8.67,5 9.5,5 Z M9.5,7 C8.67,7 8,7.67 8,8.5 C8,9.33 8.67,10 9.5,10 C10.33,10 11,9.33 11,8.5 C11,7.67 10.33,7 9.5,7 Z M9.5,12 C8.67,12 8,12.67 8,13.5 C8,14.33 8.67,15 9.5,15 C10.33,15 11,14.33 11,13.5 C11,12.67 10.33,12 9.5,12 Z" id="Shape" transform="translate(9.500000, 8.500000) rotate(-270.000000) translate(-9.500000, -8.500000) "></path>
        </g>
    </g>
</svg>