<?xml version="1.0" encoding="utf-8"?>
<!-- Generator: Adobe Illustrator 18.0.0, SVG Export Plug-In . SVG Version: 6.00 Build 0)  -->
<!DOCTYPE svg PUBLIC "-//W3C//DTD SVG 1.1//EN" "http://www.w3.org/Graphics/SVG/1.1/DTD/svg11.dtd">
<svg version="1.1" id="Layer_1" xmlns="http://www.w3.org/2000/svg" xmlns:xlink="http://www.w3.org/1999/xlink" x="0px" y="0px"
	 width="24px" height="24px" viewBox="0 0 24 24" enable-background="new 0 0 24 24" xml:space="preserve">
<g id="cogwheel">
	<path fill="#000000" d="M23.84,13.54c0.07-0.5,0.11-1.02,0.11-1.54s-0.04-1.03-0.11-1.54l-3.16-0.79c-0.21-0.77-0.51-1.49-0.9-2.17
		l1.67-2.79c-0.63-0.82-1.36-1.55-2.18-2.18L16.5,4.21c-0.67-0.39-1.4-0.69-2.17-0.9l-0.79-3.16c-0.5-0.07-1.02-0.11-1.54-0.11
		s-1.03,0.04-1.54,0.11L9.67,3.32c-0.77,0.2-1.49,0.5-2.16,0.89L4.72,2.54C3.9,3.17,3.17,3.9,2.54,4.72L4.21,7.5
		c-0.39,0.67-0.69,1.4-0.9,2.17l-3.16,0.79c-0.07,0.5-0.11,1.02-0.11,1.54s0.04,1.03,0.11,1.54l3.16,0.79
		c0.21,0.77,0.51,1.5,0.9,2.17l-1.67,2.79c0.63,0.82,1.36,1.55,2.18,2.18l2.79-1.67c0.67,0.39,1.4,0.69,2.17,0.9l0.79,3.16
		c0.5,0.07,1.02,0.11,1.54,0.11s1.03-0.04,1.54-0.11l0.79-3.16c0.77-0.21,1.5-0.51,2.17-0.9l2.79,1.67
		c0.82-0.63,1.55-1.36,2.18-2.18l-1.67-2.79c0.39-0.67,0.69-1.4,0.9-2.17L23.84,13.54z M12.79,16.95c-3.39,0.52-6.26-2.35-5.74-5.74
		C7.37,9.1,9.1,7.37,11.21,7.05c3.39-0.52,6.26,2.35,5.74,5.74C16.63,14.9,14.9,16.63,12.79,16.95z"/>
</g>
</svg>
