<?xml version="1.0" encoding="utf-8"?>
<!-- Generator: Adobe Illustrator 18.0.0, SVG Export Plug-In . SVG Version: 6.00 Build 0)  -->
<!DOCTYPE svg PUBLIC "-//W3C//DTD SVG 1.1//EN" "http://www.w3.org/Graphics/SVG/1.1/DTD/svg11.dtd">
<svg version="1.1" xmlns="http://www.w3.org/2000/svg" xmlns:xlink="http://www.w3.org/1999/xlink" x="0px" y="0px" width="24px"
	 height="24px" viewBox="0 0 24 24" enable-background="new 0 0 24 24" xml:space="preserve">
<g id="Layer_4" display="none">
	<rect display="inline" fill="#000102" width="24" height="24"/>
</g>
<g id="Layer_1" display="none">
	<g id="cogwheel" display="inline">
		<path d="M23.84,13.54c0.07-0.5,0.11-1.02,0.11-1.54c0-0.52-0.04-1.03-0.11-1.54l-3.16-0.79c-0.21-0.77-0.51-1.49-0.9-2.17
			l1.67-2.79c-0.63-0.82-1.36-1.55-2.18-2.18L16.5,4.21c-0.67-0.39-1.4-0.69-2.17-0.9l-0.79-3.16c-0.5-0.07-1.02-0.11-1.54-0.11
			c-0.52,0-1.03,0.04-1.54,0.11L9.67,3.32C8.9,3.52,8.18,3.82,7.51,4.21L4.72,2.54C3.9,3.17,3.17,3.9,2.54,4.72L4.21,7.5
			c-0.39,0.67-0.69,1.4-0.9,2.17l-3.16,0.79c-0.07,0.5-0.11,1.02-0.11,1.54c0,0.52,0.04,1.03,0.11,1.54l3.16,0.79
			c0.21,0.77,0.51,1.5,0.9,2.17l-1.67,2.79c0.63,0.82,1.36,1.55,2.18,2.18l2.79-1.67c0.67,0.39,1.4,0.69,2.17,0.9l0.79,3.16
			c0.5,0.07,1.02,0.11,1.54,0.11c0.52,0,1.03-0.04,1.54-0.11l0.79-3.16c0.77-0.21,1.5-0.51,2.17-0.9l2.79,1.67
			c0.82-0.63,1.55-1.36,2.18-2.18l-1.67-2.79c0.39-0.67,0.69-1.4,0.9-2.17L23.84,13.54z M12,16.93c-2.72,0-4.93-2.21-4.93-4.93
			c0-2.72,2.21-4.93,4.93-4.93c2.72,0,4.93,2.21,4.93,4.93C16.93,14.72,14.72,16.93,12,16.93z"/>
	</g>
</g>
<g id="Layer_2" display="none">
	<g display="inline">
		<path fill="#FFFFFF" d="M7.41,1.21C8.66,0.41,10.19,0,12.01,0c2.39,0,4.38,0.57,5.96,1.71s2.37,2.84,2.37,5.08
			c0,1.38-0.34,2.53-1.03,3.48c-0.4,0.57-1.17,1.3-2.31,2.19l-1.12,0.87c-0.61,0.48-1.02,1.03-1.22,1.67
			c-0.13,0.4-0.2,1.03-0.21,1.87h-4.3c0.06-1.79,0.23-3.02,0.51-3.71c0.27-0.68,0.98-1.47,2.12-2.36l1.16-0.9
			c0.38-0.29,0.69-0.6,0.92-0.94c0.42-0.58,0.63-1.22,0.63-1.92c0-0.8-0.24-1.54-0.71-2.2c-0.47-0.66-1.33-0.99-2.57-0.99
			c-1.22,0-2.09,0.41-2.6,1.22C9.09,5.9,8.84,6.75,8.84,7.62H4.25C4.38,4.61,5.43,2.47,7.41,1.21z M10.04,19.05h4.75v4.59h-4.75
			V19.05z"/>
	</g>
</g>
<g id="Layer_3">
	<g>
		<path fill="#FFFFFF" d="M7.81,2.47c1.31-1.39,3.1-2.09,5.38-2.09c2.11,0,3.8,0.6,5.07,1.79c1.27,1.19,1.9,2.71,1.9,4.56
			c0,1.12-0.23,2.03-0.69,2.73s-1.4,1.73-2.83,3.08c-1.04,0.98-1.71,1.82-2.03,2.5c-0.31,0.68-0.47,1.69-0.47,3.02h-2.83
			c0-1.51,0.18-2.73,0.54-3.66c0.36-0.93,1.16-1.99,2.4-3.18l1.29-1.25c0.39-0.36,0.7-0.74,0.95-1.13c0.44-0.69,0.66-1.4,0.66-2.14
			c0-1.04-0.32-1.94-0.95-2.7c-0.63-0.76-1.68-1.14-3.14-1.14c-1.8,0-3.05,0.66-3.74,1.97C8.95,5.55,8.73,6.61,8.68,7.98H5.85
			C5.85,5.7,6.51,3.86,7.81,2.47z M11.27,20.7h3.16V24h-3.16V20.7z"/>
	</g>
	<g>
	</g>
	<g>
	</g>
	<g>
	</g>
	<g>
	</g>
	<g>
	</g>
	<g>
	</g>
	<g>
	</g>
	<g>
	</g>
	<g>
	</g>
	<g>
	</g>
	<g>
	</g>
	<g>
	</g>
	<g>
	</g>
	<g>
	</g>
	<g>
	</g>
</g>
</svg>
