<?xml version="1.0" encoding="utf-8"?>
<!-- Generator: Adobe Illustrator 21.0.2, SVG Export Plug-In . SVG Version: 6.00 Build 0)  -->
<svg version="1.1" id="Layer_1" xmlns="http://www.w3.org/2000/svg" xmlns:xlink="http://www.w3.org/1999/xlink" x="0px" y="0px"
	 width="44px" height="44px" viewBox="0 0 44 44" enable-background="new 0 0 44 44" xml:space="preserve">
<path fill="none" stroke="#000000" stroke-width="2" stroke-linecap="round" stroke-linejoin="round" stroke-miterlimit="10" d="
	M6.1,30c0-2,2.7-3.2,4.7-2.6c2,0.6,3.4,2.3,4.6,4c1.2,1.6,2.6,3.4,4.6,4c0.3,0.1,0.6,0.2,0.9,0c0.3-0.1,0.4-0.4,0.5-0.7
	c1.6-3.7,1.6-7.7,1.9-11.7S24,8.2,26.2,8.5c1.7,0.2,2.4,14.1,4.2,18.8c0.3,0.8,0.8,1.6,1.5,2.2c0.7,0.5,1.8,0.7,2.6,0.1
	c0.6-0.5,0.8-1.3,1.2-2s1.5-1.1,2-0.5"/>
</svg>
