<?xml version="1.0" encoding="utf-8"?>
<!-- Generator: Adobe Illustrator 21.0.2, SVG Export Plug-In . SVG Version: 6.00 Build 0)  -->
<svg version="1.1" id="Layer_1" xmlns:sketch="http://www.bohemiancoding.com/sketch/ns"
	 xmlns="http://www.w3.org/2000/svg" xmlns:xlink="http://www.w3.org/1999/xlink" x="0px" y="0px" width="48px" height="48px"
	 viewBox="0 0 48 48" enable-background="new 0 0 48 48" xml:space="preserve">
<title>Artboard 1</title>
<desc>Created with Sketch.</desc>
<ellipse sketch:type="MSShapeGroup" cx="26.2" cy="23.3" rx="5.6" ry="5.7">
</ellipse>
<ellipse sketch:type="MSShapeGroup" cx="37" cy="16.8" rx="2.7" ry="2.7">
</ellipse>
<ellipse sketch:type="MSShapeGroup" cx="17.4" cy="31" rx="2.7" ry="2.7">
</ellipse>
<ellipse sketch:type="MSShapeGroup" cx="8.8" cy="16.1" rx="2.7" ry="2.7">
</ellipse>
<g id="SVGID_1_">
</g>
<path d="M17.6,22.7c0.3-2.9,2-5.5,4.3-6.9L21.4,15c-2.7,1.6-4.6,4.6-4.9,8L17.6,22.7z"/>
<path d="M13.1,23.6c0-4.9,2.7-9.2,6.6-11.5l-0.5-0.9c-4.2,2.5-7.1,7.1-7.1,12.4c0,0.1,0,0.2,0,0.2L13.1,23.6
	C13.1,23.6,13.1,23.6,13.1,23.6z"/>
<g id="SVGID_3_">
</g>
<path d="M34.8,24.4c-0.3,2.9-2,5.5-4.3,6.9l0.5,0.9c2.7-1.6,4.6-4.6,4.9-7.9L34.8,24.4z"/>
<g id="SVGID_4_">
</g>
<path d="M40.2,23.6c0-0.1,0-0.2,0-0.2l-1,0.2c0,0,0,0,0,0c0,4.9-2.7,9.2-6.6,11.5l0.5,0.9C37.3,33.5,40.2,28.9,40.2,23.6z"/>
</svg>
