<?xml version="1.0" encoding="utf-8"?>
<!-- Generator: Adobe Illustrator 18.0.0, SVG Export Plug-In . SVG Version: 6.00 Build 0)  -->
<!DOCTYPE svg PUBLIC "-//W3C//DTD SVG 1.1//EN" "http://www.w3.org/Graphics/SVG/1.1/DTD/svg11.dtd">
<svg version="1.1" id="Layer_1" xmlns="http://www.w3.org/2000/svg" xmlns:xlink="http://www.w3.org/1999/xlink" x="0px" y="0px"
	 width="24px" height="24px" viewBox="0 0 24 24" enable-background="new 0 0 24 24" xml:space="preserve">
<g id="Layer_1_1_" display="none">
	<path display="inline" d="M6,19c0,1.1,0.9,2,2,2h8c1.1,0,2-0.9,2-2V7H6V19z M19,4h-3.5l-1-1h-5l-1,1H5v2h14V4z"/>
</g>
<path opacity="0.54" d="M14.95,20.1c-1.28,0-1.79-0.58-1.95-0.83V17V7V4.74c0.17-0.27,0.69-0.84,1.95-0.84c0.55,0,1-0.45,1-1
	s-0.45-1-1-1c-1.43,0-2.35,0.48-2.95,1c-0.6-0.52-1.52-1-2.95-1c-0.55,0-1,0.45-1,1s0.45,1,1,1c1.27,0,1.79,0.58,1.95,0.83V7v10
	v2.26c-0.17,0.27-0.69,0.84-1.95,0.84c-0.55,0-1,0.45-1,1s0.45,1,1,1c1.43,0,2.35-0.48,2.95-1c0.6,0.52,1.52,1,2.95,1
	c0.55,0,1-0.45,1-1S15.5,20.1,14.95,20.1z"/>
<g id="Layer_3">
</g>
</svg>
