<?xml version="1.0" encoding="utf-8"?>
<!-- Generator: Adobe Illustrator 21.0.2, SVG Export Plug-In . SVG Version: 6.00 Build 0)  -->
<svg version="1.1" id="Layer_1" xmlns="http://www.w3.org/2000/svg" xmlns:xlink="http://www.w3.org/1999/xlink" x="0px" y="0px"
	 width="18px" height="18px" viewBox="0 0 18 18" style="enable-background:new 0 0 18 18;" xml:space="preserve">
<title>Artboard 1</title>
<g>
	<path d="M7.1,10c-0.9,0-1.7-0.4-2.2-0.8L4.9,9.1L1.3,5.6l4.3-4.3L9.2,5c0.6,0.8,1.4,2.7-0.1,4.2C8.5,9.8,7.8,10,7.1,10z M6.2,7.7
		c0.2,0.2,0.9,0.6,1.5,0c0.6-0.6,0.1-1.3-0.1-1.5L5.6,4.1L4.1,5.6L6.2,7.7z"/>
</g>
<g>
	<rect x="11.2" y="6.9" transform="matrix(0.7071 -0.7071 0.7071 0.7071 -5.0617 12.22)" width="2" height="10.7"/>
</g>
</svg>
