<?xml version="1.0" encoding="utf-8"?>
<!-- Generator: Adobe Illustrator 18.0.0, SVG Export Plug-In . SVG Version: 6.00 Build 0)  -->
<!DOCTYPE svg PUBLIC "-//W3C//DTD SVG 1.1//EN" "http://www.w3.org/Graphics/SVG/1.1/DTD/svg11.dtd">
<svg version="1.1" id="Layer_2" xmlns="http://www.w3.org/2000/svg" xmlns:xlink="http://www.w3.org/1999/xlink" x="0px" y="0px"
	 width="24px" height="24px" viewBox="0 0 24 24" enable-background="new 0 0 24 24" xml:space="preserve">
<g>
	<path d="M22,1v22H2V1H22 M23,0H1v24h22V0L23,0z"/>
</g>
<rect x="10" y="6" width="1" height="18"/>
<rect x="5" y="6" width="1" height="18"/>
<rect x="16" y="5" width="1" height="18"/>
<rect x="2" y="11" width="20" height="1"/>
<rect x="2" y="1" width="20" height="7"/>
<rect x="2" y="17" width="20" height="1"/>
<g>
	<path fill="#FFFFFF" d="M6.35,4.28c-0.04,0.47-0.2,0.83-0.48,1.09S5.18,5.75,4.66,5.75S3.73,5.59,3.43,5.27S2.98,4.52,2.98,3.98
		V3.13c0-0.53,0.15-0.96,0.46-1.28s0.71-0.49,1.22-0.49c0.53,0,0.93,0.13,1.21,0.38s0.44,0.62,0.49,1.11H5.5
		C5.47,2.57,5.4,2.36,5.27,2.23S4.94,2.02,4.66,2.02c-0.26,0-0.46,0.1-0.61,0.31S3.83,2.8,3.83,3.13v0.85
		c0,0.34,0.07,0.61,0.21,0.81s0.35,0.3,0.62,0.3s0.47-0.07,0.6-0.2s0.21-0.34,0.23-0.62H6.35z"/>
	<path fill="#FFFFFF" d="M9.22,4.58c0-0.17-0.06-0.3-0.17-0.4S8.73,3.99,8.43,3.9c-0.52-0.15-0.9-0.32-1.16-0.52
		S6.89,2.91,6.89,2.55s0.15-0.64,0.44-0.86s0.68-0.33,1.15-0.33c0.48,0,0.86,0.12,1.16,0.37s0.44,0.56,0.44,0.94H9.22
		c0-0.2-0.06-0.36-0.19-0.48S8.71,2.01,8.47,2.01c-0.23,0-0.41,0.05-0.54,0.15S7.75,2.39,7.75,2.55c0,0.15,0.07,0.27,0.2,0.36
		S8.31,3.1,8.64,3.2c0.48,0.13,0.84,0.31,1.08,0.52s0.36,0.49,0.36,0.85c0,0.37-0.14,0.66-0.42,0.87S8.98,5.75,8.5,5.75
		c-0.47,0-0.88-0.12-1.22-0.35S6.76,4.82,6.76,4.37h0.86c0,0.26,0.08,0.45,0.23,0.56S8.22,5.1,8.5,5.1c0.24,0,0.42-0.05,0.54-0.14
		S9.22,4.74,9.22,4.58z"/>
	<path fill="#FFFFFF" d="M12.15,4.55l0.06,0.25h0.01l0.06-0.25l0.93-3.14h0.9l-1.45,4.27h-0.88l-1.45-4.27h0.91L12.15,4.55z"/>
</g>
<g>
</g>
<g>
</g>
<g>
</g>
<g>
</g>
<g>
</g>
<g>
</g>
<g>
</g>
<g>
</g>
<g>
</g>
<g>
</g>
<g>
</g>
<g>
</g>
<g>
</g>
<g>
</g>
<g>
</g>
</svg>
