<?xml version="1.0" encoding="utf-8"?>
<!-- Generator: Adobe Illustrator 19.0.0, SVG Export Plug-In . SVG Version: 6.00 Build 0)  -->
<!DOCTYPE svg PUBLIC "-//W3C//DTD SVG 1.1//EN" "http://www.w3.org/Graphics/SVG/1.1/DTD/svg11.dtd">
<svg version="1.1" id="Layer_1" xmlns="http://www.w3.org/2000/svg" xmlns:xlink="http://www.w3.org/1999/xlink" x="0px" y="0px"
	 width="24px" height="24px" viewBox="0 0 24 24" style="enable-background:new 0 0 24 24;" xml:space="preserve">
<path d="M8,15.1c0,2.2,1.7,3.9,3.9,3.9c2.2,0,3.9-1.7,3.9-3.9v-2h-1.2v2l0,0c0,1.5-1.2,2.7-2.7,2.7c-1.5,0-2.7-1.2-2.7-2.7v-2H8
	V15.1 M11.9,7.2c1.5,0,2.7,1.2,2.7,2.7v2h1.2v-2c0-2.2-1.7-3.9-3.9-3.9S8,7.7,8,9.9v2h1.2v-2C9.2,8.4,10.4,7.2,11.9,7.2 M11.2,9.9
	v5.2h1.3V9.9H11.2z"/>
</svg>
