<?xml version="1.0" encoding="utf-8"?>
<!-- Generator: Adobe Illustrator 18.0.0, SVG Export Plug-In . SVG Version: 6.00 Build 0)  -->
<!DOCTYPE svg PUBLIC "-//W3C//DTD SVG 1.1//EN" "http://www.w3.org/Graphics/SVG/1.1/DTD/svg11.dtd">
<svg version="1.1" id="Layer_1" xmlns="http://www.w3.org/2000/svg" xmlns:xlink="http://www.w3.org/1999/xlink" x="0px" y="0px"
	 width="24px" height="24px" viewBox="10 10 24 24" enable-background="new 10 10 24 24" xml:space="preserve">
<path id="record_center" fill="#FFFFFF" d="M22,14c-4.39,0-8,3.61-8,8s3.61,8,8,8s8-3.61,8-8C30.08,17.61,26.47,14,22,14L22,14z"/>
<g>
	<path fill="#FFFFFF" d="M21.97,12.07c5.5,0,9.97,4.47,9.97,9.97c0,5.5-4.47,9.97-9.97,9.97c-5.5,0-9.97-4.47-9.97-9.97
		C12,16.54,16.47,12.07,21.97,12.07 M21.97,10.07C15.36,10.07,10,15.42,10,22.03S15.36,34,21.97,34s11.97-5.36,11.97-11.97
		S28.58,10.07,21.97,10.07L21.97,10.07z"/>
</g>
</svg>
