<?xml version="1.0" encoding="utf-8"?>
<!-- Generator: Adobe Illustrator 21.0.2, SVG Export Plug-In . SVG Version: 6.00 Build 0)  -->
<svg version="1.1" id="Layer_1" xmlns="http://www.w3.org/2000/svg" xmlns:xlink="http://www.w3.org/1999/xlink" x="0px" y="0px"
	 width="48px" height="48px" viewBox="-12 -12 48 48" enable-background="new -12 -12 48 48" xml:space="preserve">
<g id="Layer_1_1_" display="none">
	<path display="inline" d="M6,19c0,1.1,0.9,2,2,2h8c1.1,0,2-0.9,2-2V7H6V19z M19,4h-3.5l-1-1h-5l-1,1H5v2h14V4z"/>
</g>
<g id="Layer_3">
</g>
<g>
	<path d="M-2.1,18.3H-4V5.8l-3.9,1.5V5.5l5.6-2.2h0.2V18.3z"/>
	<path d="M15.6,18.3H5.8v-1.4l4.9-5.4c0.4-0.5,0.8-0.9,1.1-1.3s0.5-0.7,0.7-1c0.2-0.3,0.3-0.6,0.4-0.9C12.9,8,13,7.7,13,7.4
		c0-0.4-0.1-0.7-0.2-1c-0.1-0.3-0.3-0.6-0.5-0.8c-0.2-0.2-0.5-0.4-0.8-0.6c-0.3-0.1-0.7-0.2-1.1-0.2C9.8,4.7,9.4,4.8,9,4.9
		C8.7,5.1,8.4,5.3,8.1,5.6s-0.4,0.6-0.5,1C7.5,6.9,7.4,7.3,7.4,7.8H5.5c0-0.6,0.1-1.2,0.3-1.8c0.2-0.6,0.5-1,0.9-1.5
		c0.4-0.4,0.9-0.7,1.5-1c0.6-0.2,1.3-0.4,2-0.4c0.7,0,1.3,0.1,1.9,0.3c0.6,0.2,1,0.5,1.4,0.9s0.7,0.8,0.9,1.3
		c0.2,0.5,0.3,1.1,0.3,1.6c0,0.4-0.1,0.9-0.2,1.3S14.3,9.5,14,9.9s-0.6,0.8-0.9,1.3c-0.3,0.4-0.7,0.8-1.1,1.2l-4,4.3h7.5V18.3z"/>
	<path d="M24.4,9.9h1.4c0.5,0,0.9-0.1,1.3-0.2c0.4-0.1,0.7-0.3,0.9-0.5c0.2-0.2,0.4-0.5,0.6-0.8c0.1-0.3,0.2-0.7,0.2-1
		c0-0.9-0.2-1.5-0.7-2c-0.4-0.4-1.1-0.7-1.9-0.7c-0.4,0-0.8,0.1-1.1,0.2c-0.3,0.1-0.6,0.3-0.8,0.5s-0.4,0.5-0.5,0.8
		c-0.1,0.3-0.2,0.7-0.2,1.1h-1.9c0-0.6,0.1-1.1,0.3-1.6c0.2-0.5,0.5-0.9,0.9-1.3c0.4-0.4,0.9-0.7,1.4-0.9c0.6-0.2,1.2-0.3,1.9-0.3
		c0.7,0,1.3,0.1,1.8,0.3c0.6,0.2,1,0.4,1.4,0.8C29.7,4.6,30,5,30.2,5.6c0.2,0.5,0.3,1.1,0.3,1.8c0,0.3,0,0.6-0.1,0.9
		c-0.1,0.3-0.2,0.6-0.4,0.9c-0.2,0.3-0.4,0.6-0.7,0.8s-0.6,0.5-1,0.6c0.5,0.2,0.9,0.4,1.2,0.6s0.6,0.5,0.8,0.8s0.3,0.6,0.4,1
		c0.1,0.3,0.1,0.7,0.1,1c0,0.7-0.1,1.3-0.4,1.9s-0.6,1-1,1.4s-0.9,0.7-1.5,0.8s-1.2,0.3-1.9,0.3c-0.7,0-1.3-0.1-1.8-0.3
		c-0.6-0.2-1.1-0.5-1.5-0.8c-0.4-0.4-0.8-0.8-1-1.3c-0.2-0.5-0.4-1.1-0.4-1.8h1.9c0,0.4,0.1,0.7,0.2,1.1c0.1,0.3,0.3,0.6,0.6,0.8
		c0.2,0.2,0.5,0.4,0.9,0.5s0.7,0.2,1.2,0.2c0.4,0,0.8-0.1,1.2-0.2c0.3-0.1,0.6-0.3,0.9-0.5s0.4-0.5,0.6-0.9s0.2-0.8,0.2-1.2
		c0-0.5-0.1-0.9-0.2-1.2c-0.2-0.3-0.4-0.6-0.6-0.8c-0.3-0.2-0.6-0.4-1-0.5c-0.4-0.1-0.8-0.2-1.3-0.2h-1.4V9.9z"/>
</g>
</svg>
