<?xml version="1.0" encoding="UTF-8" standalone="no"?>
<svg width="36px" height="36px" viewBox="0 0 36 36" version="1.1" xmlns="http://www.w3.org/2000/svg" xmlns:xlink="http://www.w3.org/1999/xlink" xmlns:sketch="http://www.bohemiancoding.com/sketch/ns">
    <!-- Generator: Sketch 3.3.2 (12043) - http://www.bohemiancoding.com/sketch -->
    <title>Artboard 1</title>
    <desc>Created with Sketch.</desc>
    <defs></defs>
    <g id="Page-1" stroke="none" stroke-width="1" fill="none" fill-rule="evenodd" sketch:type="MSPage">
        <g id="Artboard-1" sketch:type="MSArtboardGroup" stroke="#000000" stroke-width="2">
            <g id="new-copy" sketch:type="MSLayerGroup" transform="translate(17.500000, 18.000000) rotate(-90.000000) translate(-17.500000, -18.000000) translate(5.500000, 5.500000)">
                <path d="M0,1 C0,1 13,1 13,1 C13,1 20,1 20,1 C20,1 24,3 24,3 L24,9 L21,13 L21,22 L18,25 L14.5,25 L0,25 L0,1 Z" id="Rectangle-218-Copy-4" sketch:type="MSShapeGroup"></path>
                <path d="M0,1 C0,1 9.20833333,1 9.20833333,1 C9.20833333,1 17,1 17,1 C17,1 17,18 17,14 L17,17.5 L17,20.5 C17,20.5 13.3540853,25 12.2708333,25 L0,25 L0,1 Z" id="Rectangle-218-Copy-5" sketch:type="MSShapeGroup" transform="translate(8.500000, 13.000000) scale(1, -1) translate(-8.500000, -13.000000) "></path>
            </g>
        </g>
    </g>
</svg>
