<?xml version="1.0" encoding="utf-8"?>
<!-- Generator: Adobe Illustrator 21.0.2, SVG Export Plug-In . SVG Version: 6.00 Build 0)  -->
<svg version="1.1" id="Layer_1" xmlns="http://www.w3.org/2000/svg" xmlns:xlink="http://www.w3.org/1999/xlink" x="0px" y="0px"
	 width="24px" height="24px" viewBox="0 0 24 24" style="enable-background:new 0 0 24 24;" xml:space="preserve">
<title>Artboard 1</title>
<desc>Created with Sketch.</desc>
<g id="Page-1">
	<g id="Artboard-1">
		
			<g id="Rectangle-212-_x2B_-Rectangle-212-Copy-_x2B_-Rectangle-212-Copy-2" transform="translate(18.000000, 18.000000) rotate(-270.000000) translate(-18.000000, -18.000000) translate(16.000000, 7.000000)">
			<path id="Rectangle-212" d="M-4,6L-4,6c1.1,0,2,0.9,2,2l0,0c0,1.1-0.9,2-2,2l0,0c-1.1,0-2-0.9-2-2l0,0C-6,6.9-5.1,6-4,6z"/>
			<path id="Rectangle-212-Copy" d="M-4,15L-4,15c1.1,0,2,0.9,2,2l0,0c0,1.1-0.9,2-2,2l0,0c-1.1,0-2-0.9-2-2l0,0
				C-6,15.9-5.1,15-4,15z"/>
			<path id="Rectangle-212-Copy-2" d="M-4,24L-4,24c1.1,0,2,0.9,2,2l0,0c0,1.1-0.9,2-2,2l0,0c-1.1,0-2-0.9-2-2l0,0
				C-6,24.9-5.1,24-4,24z"/>
		</g>
	</g>
</g>
</svg>
