<?xml version="1.0" encoding="utf-8"?>
<!-- Generator: Adobe Illustrator 18.1.1, SVG Export Plug-In . SVG Version: 6.00 Build 0)  -->
<!DOCTYPE svg PUBLIC "-//W3C//DTD SVG 1.1//EN" "http://www.w3.org/Graphics/SVG/1.1/DTD/svg11.dtd">
<svg version="1.1" xmlns="http://www.w3.org/2000/svg" xmlns:xlink="http://www.w3.org/1999/xlink" x="0px" y="0px" width="24px"
	 height="24px" viewBox="11.5 24 24 24" enable-background="new 11.5 24 24 24" xml:space="preserve">
<g id="Layer_1" display="none">
	<path display="inline" d="M31.4,29.3L29,31.7c-0.5,0.5-1.2,0.5-1.7,0c-0.5-0.5-0.5-1.2,0-1.7l2.4-2.4c-1.7-1-4-0.8-5.5,0.7
		c-1.3,1.3-1.6,3.2-1,4.8l-8.7,8.7c-0.7,0.7-0.7,1.9,0,2.6c0.7,0.7,1.9,0.7,2.6,0l8.7-8.7c1.6,0.6,3.5,0.3,4.8-1
		C32.2,33.2,32.4,31,31.4,29.3z M16.2,43.6c-0.2,0.2-0.6,0.2-0.8,0c-0.2-0.2-0.2-0.6,0-0.8c0.2-0.2,0.6-0.2,0.8,0
		C16.5,43,16.5,43.3,16.2,43.6z"/>
</g>
<g id="Layer_2">
	<path d="M32.4,29.4l-2.5,2.5c-0.5,0.5-1.3,0.5-1.7,0c-0.5-0.5-0.5-1.3,0-1.7l2.5-2.5c-1.8-1-4.1-0.8-5.7,0.8
		c-1.4,1.4-1.7,3.3-1.1,5l-9.1,9.1c-0.7,0.7-0.7,2,0,2.7c0.7,0.7,2,0.7,2.7,0l9.1-9.1c1.7,0.6,3.7,0.3,5-1.1
		C33.2,33.5,33.4,31.2,32.4,29.4z M31.1,34.6c-1.3,1.3-3.2,1.5-4.7,0.7l-9.4,9.4c-0.5,0.5-1.3,0.5-1.7,0c-0.5-0.5-0.5-1.3,0-1.7
		l9.4-9.4c-0.8-1.5-0.5-3.4,0.7-4.7c1.1-1.1,2.6-1.4,4-1l-1.8,1.8c-0.7,0.7-0.7,2,0,2.7c0.7,0.7,2,0.7,2.7,0l1.8-1.8
		C32.6,32,32.2,33.5,31.1,34.6z M16.5,43.5c0.2,0.2,0.2,0.5,0,0.6c-0.2,0.2-0.5,0.2-0.6,0c-0.2-0.2-0.2-0.5,0-0.6
		C16.1,43.3,16.3,43.3,16.5,43.5z"/>
</g>
</svg>
