<?xml version="1.0" encoding="utf-8"?>
<!-- Generator: Adobe Illustrator 18.1.1, SVG Export Plug-In . SVG Version: 6.00 Build 0)  -->
<!DOCTYPE svg PUBLIC "-//W3C//DTD SVG 1.1//EN" "http://www.w3.org/Graphics/SVG/1.1/DTD/svg11.dtd">
<svg version="1.1" id="Layer_1" xmlns="http://www.w3.org/2000/svg" xmlns:xlink="http://www.w3.org/1999/xlink" x="0px" y="0px"
	 width="24px" height="24px" viewBox="-11 13 24 24" enable-background="new -11 13 24 24" xml:space="preserve">
<rect x="-10" y="17" fill="#FFFFFF" width="22" height="1"/>
<rect x="-9" y="14" fill="#FFFFFF" width="20" height="1"/>
<path fill="#FFFFFF" d="M-11,20v17h24V20H-11z M2.7,32.1c-1.6,0-2.6-1.2-3.4-2.1c-0.7-0.8-1.2-1.3-1.8-1.3c-0.6,0-1.9,2.8-2.4,6
	l-2-0.4c0.4-2.3,1.7-7.7,4.4-7.7c1.6,0,2.5,1.1,3.3,2.1c0.7,0.9,1.2,1.4,1.8,1.4c0.9-0.1,2.9-3.9,4.2-7.9l1.9,0.6
	C6,31.2,3.6,32.1,2.7,32.1z"/>
</svg>
