<?xml version="1.0" encoding="utf-8"?>
<!-- Generator: Adobe Illustrator 21.0.2, SVG Export Plug-In . SVG Version: 6.00 Build 0)  -->
<svg version="1.1" id="Layer_1" xmlns="http://www.w3.org/2000/svg" xmlns:xlink="http://www.w3.org/1999/xlink" x="0px" y="0px"
	 width="178.1px" height="14px" viewBox="0 0 178.1 14" style="enable-background:new 0 0 178.1 14;" xml:space="preserve">
<style type="text/css">
	.st0{fill:#FFFFFF;}
</style>
<g>
	<path class="st0" d="M7.5,0.5L7.3,2.3C6.3,1.9,5.5,1.7,4.8,1.7c-0.6,0-1.2,0.1-1.6,0.4C2.7,2.4,2.4,2.9,2.4,3.5
		c0,0.4,0.1,0.7,0.4,1.1c0.3,0.3,0.6,0.6,1.1,0.8C4.3,5.5,4.8,5.7,5.3,6s1,0.5,1.4,0.8C7.1,7.1,7.4,7.5,7.7,8C8,8.6,8.1,9.2,8.1,9.8
		c0,1.3-0.5,2.3-1.4,3c-0.9,0.6-2.1,1-3.5,1c-0.7,0-1.6-0.2-2.7-0.6l0.2-1.8c1.1,0.4,2,0.6,2.8,0.6c0.6,0,1.2-0.2,1.8-0.6
		c0.5-0.4,0.8-0.9,0.8-1.6c0-0.5-0.2-1-0.6-1.4C5.1,8.2,4.7,7.9,4.1,7.6C3.6,7.4,3,7.1,2.4,6.8C1.9,6.5,1.4,6.1,1,5.6
		C0.6,5.1,0.4,4.4,0.4,3.7c0-1.1,0.4-2,1.2-2.7c0.8-0.6,1.8-1,3.1-1C5.7,0.1,6.6,0.2,7.5,0.5z"/>
	<path class="st0" d="M10.6,13.6V0.3h3.5c0.7,0,1.4,0.1,1.9,0.2c0.6,0.1,1.1,0.3,1.6,0.6c0.5,0.3,0.8,0.7,1.1,1.2
		c0.3,0.5,0.4,1.2,0.4,1.9c0,1.4-0.4,2.4-1.3,3c-0.9,0.6-2,1-3.4,1h-1.9v5.3H10.6z M12.5,2v4.6h1.9c0.7,0,1.3-0.2,1.9-0.6
		c0.5-0.4,0.8-1,0.8-1.8c0-0.5-0.2-1-0.5-1.3c-0.3-0.4-0.7-0.6-1.1-0.8S14.6,2,14.1,2H12.5z"/>
	<path class="st0" d="M21.4,13.6V0.3h7.4V2h-5.5v3.9h5v1.7h-5v4.4h5.5v1.7H21.4z"/>
	<path class="st0" d="M41.2,0.6l-0.2,1.8c-0.8-0.5-1.8-0.7-2.7-0.7c-1.5,0-2.8,0.5-3.7,1.5c-0.9,1-1.4,2.2-1.4,3.7
		c0,1.5,0.5,2.8,1.4,3.7c1,1,2.1,1.4,3.6,1.4c1.2,0,2.2-0.2,2.9-0.6l0.1,1.8c-0.8,0.3-1.8,0.5-3,0.5c-2.1,0-3.8-0.6-5.1-1.9
		c-1.3-1.3-1.9-2.9-1.9-5c0-2,0.7-3.7,2-4.9c1.3-1.3,3-1.9,5-1.9C39.3,0.1,40.3,0.3,41.2,0.6z"/>
	<path class="st0" d="M46.2,13.6V2H42V0.3h10.2V2h-4.1v11.6H46.2z"/>
	<path class="st0" d="M54,13.6V0.3h3.3c0.6,0,1.1,0,1.6,0.1c0.4,0,0.9,0.1,1.4,0.3C60.6,0.8,61,1,61.3,1.3c0.3,0.3,0.6,0.6,0.8,1.1
		c0.2,0.5,0.3,1,0.3,1.6c0,0.8-0.3,1.5-0.8,2c-0.5,0.5-1.2,0.9-2,1v0c0.3,0.1,0.5,0.3,0.7,0.4c0.2,0.2,0.4,0.5,0.6,0.9l2.5,5.3h-2.2
		l-2-4.6c-0.1-0.3-0.3-0.6-0.4-0.8c-0.2-0.2-0.3-0.3-0.5-0.4c-0.2-0.1-0.4-0.1-0.5-0.1c-0.2,0-0.4,0-0.7,0h-1.1v5.9H54z M55.9,2v4
		h1.6c0.9,0,1.6-0.2,2.1-0.6c0.5-0.4,0.8-0.9,0.8-1.5c0-0.6-0.2-1.1-0.7-1.4c-0.5-0.3-1.1-0.5-2-0.5H55.9z"/>
	<path class="st0" d="M64.2,13.6l5.7-13.3h2l5.6,13.3h-2.1l-1.4-3.3h-6.5l-1.4,3.3H64.2z M73.5,8.7l-2.6-6.6l-2.6,6.6H73.5z"/>
	<path class="st0" d="M79.4,13.6V0.3h1.9v11.6h5.6v1.7H79.4z"/>
	<path class="st0" d="M92.8,13.6l5.7-13.3h2l5.6,13.3H104l-1.4-3.3h-6.5l-1.4,3.3H92.8z M102,8.7l-2.6-6.6l-2.6,6.6H102z"/>
	<path class="st0" d="M108,13.6V0.3h2.6l5.9,10.7h0V0.3h1.9v13.3h-2.4l-6-10.9h0v10.9H108z"/>
	<path class="st0" d="M120.2,13.6l5.7-13.3h2l5.6,13.3h-2.1l-1.4-3.3h-6.5l-1.4,3.3H120.2z M129.5,8.7l-2.6-6.6l-2.6,6.6H129.5z"/>
	<path class="st0" d="M135.4,13.6V0.3h1.9v11.6h5.6v1.7H135.4z"/>
	<path class="st0" d="M146.9,13.6V8l-5.2-7.7h2.2l4,6l3.9-6h2.2L148.8,8v5.6H146.9z"/>
	<path class="st0" d="M162.2,0.5l-0.3,1.8c-0.9-0.4-1.8-0.6-2.5-0.6c-0.6,0-1.2,0.1-1.6,0.4c-0.5,0.3-0.7,0.7-0.7,1.4
		c0,0.4,0.1,0.7,0.4,1.1c0.3,0.3,0.6,0.6,1.1,0.8c0.4,0.2,0.9,0.4,1.4,0.7s1,0.5,1.4,0.8c0.4,0.3,0.8,0.7,1.1,1.2
		c0.3,0.5,0.4,1.1,0.4,1.8c0,1.3-0.5,2.3-1.4,3c-0.9,0.6-2.1,1-3.5,1c-0.7,0-1.6-0.2-2.7-0.6l0.2-1.8c1.1,0.4,2,0.6,2.8,0.6
		c0.6,0,1.2-0.2,1.8-0.6c0.5-0.4,0.8-0.9,0.8-1.6c0-0.5-0.2-1-0.6-1.4c-0.4-0.4-0.9-0.7-1.4-0.9c-0.6-0.3-1.1-0.5-1.7-0.8
		c-0.6-0.3-1-0.7-1.4-1.2c-0.4-0.5-0.6-1.2-0.6-1.9c0-1.1,0.4-2,1.2-2.7c0.8-0.6,1.8-1,3.1-1C160.3,0.1,161.3,0.2,162.2,0.5z"/>
	<path class="st0" d="M165.4,13.6V0.3h1.9v13.3H165.4z"/>
	<path class="st0" d="M177,0.5l-0.3,1.8c-0.9-0.4-1.8-0.6-2.5-0.6c-0.6,0-1.2,0.1-1.6,0.4c-0.5,0.3-0.7,0.7-0.7,1.4
		c0,0.4,0.1,0.7,0.4,1.1c0.3,0.3,0.6,0.6,1.1,0.8c0.4,0.2,0.9,0.4,1.4,0.7s1,0.5,1.4,0.8c0.4,0.3,0.8,0.7,1.1,1.2
		c0.3,0.5,0.4,1.1,0.4,1.8c0,1.3-0.5,2.3-1.4,3c-0.9,0.6-2.1,1-3.5,1c-0.7,0-1.6-0.2-2.7-0.6l0.2-1.8c1.1,0.4,2,0.6,2.8,0.6
		c0.6,0,1.2-0.2,1.8-0.6c0.5-0.4,0.8-0.9,0.8-1.6c0-0.5-0.2-1-0.6-1.4c-0.4-0.4-0.9-0.7-1.4-0.9c-0.6-0.3-1.1-0.5-1.7-0.8
		c-0.6-0.3-1-0.7-1.4-1.2c-0.4-0.5-0.6-1.2-0.6-1.9c0-1.1,0.4-2,1.2-2.7c0.8-0.6,1.8-1,3.1-1C175.1,0.1,176.1,0.2,177,0.5z"/>
</g>
</svg>
