<?xml version="1.0" encoding="utf-8"?>
<!-- Generator: Adobe Illustrator 15.0.2, SVG Export Plug-In  -->
<!DOCTYPE svg PUBLIC "-//W3C//DTD SVG 1.1//EN" "http://www.w3.org/Graphics/SVG/1.1/DTD/svg11.dtd" [
	<!ENTITY ns_flows "http://ns.adobe.com/Flows/1.0/">
]>
<svg version="1.1"
	 xmlns="http://www.w3.org/2000/svg" xmlns:xlink="http://www.w3.org/1999/xlink" xmlns:a="http://ns.adobe.com/AdobeSVGViewerExtensions/3.0/"
	 x="0px" y="0px" width="146px" height="55px" viewBox="-0.59033 0.12793 146 55"
	 style="overflow:visible;enable-background:new -0.59033 0.12793 146 55;" xml:space="preserve">
<style type="text/css">
<![CDATA[
	.st0{fill:none;stroke:#000000;stroke-width:0.82057;}
]]>
</style>
<defs>
</defs>
<polyline class="st0" points="26.23828,50.08887 31.36035,21.83154 38.60449,21.83154 38.60449,23.05029 37.18896,23.05029 
	37.09229,24.26953 40.21436,24.26953 "/>
<path class="st0" d="M26.23877,49.88281c-1.04443,2.39648-3.19336,3.78613-5.24512,4.54492l0.01709-29.96338h1.4707v-4.19434
	h-7.41357"/>
<polyline class="st0" points="38.58008,24.26953 41.60449,24.26953 41.60449,23.05029 40.18799,23.05029 40.18799,21.83154 
	52.01807,21.85596 52.01807,8.46533 "/>
<polyline class="st0" points="40.21436,5.75244 37.16553,5.75244 37.11572,6.97217 38.60449,6.97217 38.60449,8.19238 
	27.38477,8.19238 27.43311,8.95264 20.75195,8.95264 20.75195,7.34326 22.21484,7.34326 22.21484,0.46484 "/>
<polyline class="st0" points="38.58008,5.75244 41.60449,5.75244 41.60449,6.97217 40.18945,6.97217 40.18945,8.19238 
	52.01807,8.19189 52.01807,21.06982 "/>
<line class="st0" x1="22.50635" y1="20.2207" x2="22.50635" y2="15.9043"/>
<path class="st0" d="M22.36084,0.39502c-3.37744,0.94141-5.854,4.03906-5.854,7.7168c0,3.78271,2.62207,6.95361,6.14551,7.79248"/>
<polyline class="st0" points="5.23926,50.08887 0.41016,23.00293 0.41016,8.95264 10.40918,8.95264 "/>
<path class="st0" d="M5.23682,49.88281c1.04736,2.39648,3.1958,3.78613,5.24609,4.54492l-0.01465-29.96338H8.9458l0.04883-4.19434
	h7.41455"/>
<polyline class="st0" points="10.23779,8.95264 10.23779,7.34326 8.7749,7.34326 8.7749,0.46484 "/>
<path class="st0" d="M8.62939,0.39502c3.37695,0.94141,5.85352,4.03906,5.85352,7.7168c0,0.33594-0.02051,0.66748-0.06104,0.99219"
	/>
<line class="st0" x1="14.45703" y1="8.95264" x2="16.43506" y2="8.95264"/>
<ellipse class="st0" cx="37.98096" cy="14.76978" rx="6.96777" ry="4.33716"/>
<path class="st0" d="M54.8584,24.45557c1.14795,0,2.07812-0.92969,2.07812-2.07568s-0.93018-2.07568-2.07812-2.07568
	c-1.146,0-2.18604,0.92969-2.07275,2.07568C52.896,23.52051,53.7124,24.45557,54.8584,24.45557z"/>
<polyline class="st0" points="52.09033,20.02734 130.79932,20.05078 130.79932,9.0752 52.09033,9.05029 "/>
<polyline class="st0" points="130.79932,13.29395 139.3833,13.29395 143.43213,15.44043 130.9458,15.44043 "/>
<line class="st0" x1="34.4585" y1="16.85498" x2="34.4585" y2="18.51465"/>
<line class="st0" x1="34.06689" y1="19.78223" x2="34.06689" y2="21.83154"/>
<line class="st0" x1="32.54639" y1="19.78223" x2="32.54639" y2="21.83154"/>
<line class="st0" x1="41.72559" y1="16.90479" x2="41.72559" y2="18.56299"/>
<line class="st0" x1="39.48242" y1="16.90479" x2="39.48242" y2="19.14844"/>
<line class="st0" x1="36.94434" y1="14.85645" x2="36.94434" y2="18.95264"/>
<line class="st0" x1="35.5791" y1="19.83154" x2="35.5791" y2="21.68408"/>
<line class="st0" x1="37.08105" y1="19.83154" x2="37.08105" y2="21.68408"/>
<line class="st0" x1="38.48682" y1="19.83154" x2="38.48682" y2="21.68408"/>
<line class="st0" x1="40.00928" y1="19.83154" x2="40.00928" y2="21.68408"/>
<line class="st0" x1="41.53076" y1="19.83154" x2="41.53076" y2="21.68408"/>
<line class="st0" x1="43.05176" y1="19.83154" x2="43.05176" y2="21.68408"/>
<line class="st0" x1="44.57422" y1="19.83154" x2="44.57422" y2="21.68408"/>
<line class="st0" x1="53.67627" y1="19.87939" x2="53.67627" y2="16.85498"/>
<line class="st0" x1="55.78369" y1="19.87939" x2="55.78369" y2="16.85498"/>
<line class="st0" x1="57.89209" y1="19.87939" x2="57.89209" y2="14.80713"/>
<line class="st0" x1="59.99805" y1="19.87939" x2="59.99805" y2="16.85498"/>
<line class="st0" x1="62.10645" y1="19.87939" x2="62.10645" y2="16.85498"/>
<line class="st0" x1="64.21338" y1="19.87939" x2="64.21338" y2="16.85498"/>
<line class="st0" x1="66.32031" y1="19.87939" x2="66.32031" y2="16.85498"/>
<line class="st0" x1="70.41797" y1="19.87939" x2="70.41797" y2="16.85498"/>
<line class="st0" x1="72.52637" y1="19.87939" x2="72.52637" y2="16.85498"/>
<line class="st0" x1="74.6333" y1="19.87939" x2="74.6333" y2="16.85498"/>
<line class="st0" x1="76.74268" y1="19.87939" x2="76.74268" y2="16.85498"/>
<line class="st0" x1="80.83838" y1="19.87939" x2="80.83838" y2="16.85498"/>
<line class="st0" x1="82.9458" y1="19.87939" x2="82.9458" y2="16.85498"/>
<line class="st0" x1="85.05127" y1="19.87939" x2="85.05127" y2="16.85498"/>
<line class="st0" x1="87.15869" y1="19.87939" x2="87.15869" y2="16.85498"/>
<line class="st0" x1="91.2583" y1="19.87939" x2="91.2583" y2="16.85498"/>
<line class="st0" x1="93.36768" y1="19.87939" x2="93.36768" y2="16.85498"/>
<line class="st0" x1="95.46924" y1="19.87939" x2="95.46924" y2="16.85498"/>
<line class="st0" x1="97.58057" y1="19.87939" x2="97.58057" y2="16.85498"/>
<line class="st0" x1="101.67822" y1="19.87939" x2="101.67822" y2="16.85498"/>
<line class="st0" x1="103.78564" y1="19.87939" x2="103.78564" y2="16.85498"/>
<line class="st0" x1="105.89111" y1="19.87939" x2="105.89111" y2="16.85498"/>
<line class="st0" x1="107.99854" y1="19.87939" x2="107.99854" y2="16.85498"/>
<line class="st0" x1="112.09619" y1="19.87939" x2="112.09619" y2="16.85498"/>
<line class="st0" x1="114.20361" y1="19.87939" x2="114.20361" y2="16.85498"/>
<line class="st0" x1="116.31104" y1="19.87939" x2="116.31104" y2="16.85498"/>
<line class="st0" x1="110.10791" y1="19.87939" x2="110.10791" y2="14.80713"/>
<line class="st0" x1="99.68799" y1="19.87939" x2="99.68799" y2="14.80713"/>
<line class="st0" x1="89.26807" y1="19.87939" x2="89.26807" y2="14.80713"/>
<line class="st0" x1="78.84814" y1="19.87939" x2="78.84814" y2="14.80713"/>
<line class="st0" x1="68.42822" y1="19.87939" x2="68.42822" y2="14.80713"/>
<line class="st0" x1="40.21436" y1="21.83154" x2="38.75098" y2="21.83154"/>
<path d="M134.35596,8.26904c0.88672,0,1.5918,0.72168,1.5918,1.62158c0,0.9165-0.70508,1.62939-1.59961,1.62939
	c-0.88672,0-1.60938-0.71289-1.60938-1.62939c0-0.8999,0.72266-1.62158,1.60938-1.62158H134.35596z M134.34814,8.52197
	c-0.71484,0-1.29688,0.61279-1.29688,1.36865c0,0.77295,0.58203,1.37744,1.30469,1.37744
	c0.7207,0.00684,1.29492-0.60449,1.29492-1.36963c0-0.76367-0.57422-1.37646-1.29492-1.37646H134.34814z M134.04541,10.83496
	h-0.28906V9.02588c0.15039-0.02246,0.29688-0.04297,0.51172-0.04297c0.27539,0,0.45703,0.05713,0.5625,0.13672
	c0.10742,0.08008,0.16406,0.20215,0.16406,0.375c0,0.23779-0.15625,0.38281-0.35156,0.43945v0.01416
	c0.1582,0.02979,0.26758,0.17432,0.30273,0.43994c0.04297,0.28125,0.08594,0.38965,0.11523,0.44678h-0.30273
	c-0.04297-0.05713-0.08594-0.22314-0.12305-0.46045c-0.04102-0.23047-0.1582-0.31738-0.38672-0.31738h-0.20312V10.83496z
	 M134.04541,9.83301h0.20898c0.23633,0,0.43945-0.08594,0.43945-0.31006c0-0.1582-0.11523-0.31641-0.43945-0.31641
	c-0.09375,0-0.1582,0.00732-0.20898,0.01367V9.83301z"/>
<path d="M34.55469,32.72949h5.46289l6.36133,12.09277l6.36133-12.09277h5.46191l-8.74463,16.27344h-6.15674L34.55469,32.72949z"/>
<path d="M56.00195,42.6416c0-4.33789,2.15674-5.28125,5.30371-5.28125h3.0127c4.58691,0,6.47461,0.96582,6.47461,4.94336v1.93457
	H60.31592v0.69531c0,1.21387,0.85547,1.55078,2.65186,1.55078h1.32764c2.33838,0,2.4502-0.62891,2.4502-1.30469h4.04736v0.49805
	c0,2.87598-2.56299,3.50488-5.68896,3.50488h-3.2373c-2.85449,0-5.86475-0.53809-5.86475-5.44043V42.6416z M66.61279,41.6748
	c0-1.37109-0.63135-1.61816-3.1499-1.61816c-2.80811,0-3.14697,0.24707-3.14697,1.61816H66.61279z"/>
<path d="M73.0625,37.54004h4.04541v2.17871h0.04883c0.49219-1.82031,2.24609-2.3584,4.19922-2.3584
	c3.15039,0,4.38281,1.34766,4.38281,4.51855c0,0.29102-0.01953,0.60547-0.04297,1.01074h-3.73242
	c0-1.46094-0.33789-2.15723-2.07031-2.15723c-1.48047,0-2.51172,0.56055-2.51172,1.92969v6.34082H73.0625V37.54004z"/>
<path d="M87.44775,37.54004h4.31836v1.84473h0.04297c0.76562-1.59766,2.27148-2.02441,4.58594-2.02441
	c2.67773,0,6.40625,0.11133,6.40625,5.05762v6.58496h-4.3125v-6.58496c0-1.125-0.90039-1.68555-2.79102-1.68555h-0.98633
	c-1.84375,0-2.94531,0.85352-2.94531,2.49316v5.77734h-4.31836V37.54004z"/>
<path d="M109.27588,36.10059h-4.31445v-3.37109h4.31445V36.10059z M109.27588,49.00293h-4.31445V37.54004h4.31445V49.00293z"/>
<path d="M111.34229,42.6416c0-4.33789,2.16016-5.28125,5.30859-5.28125h3.01172c4.58398,0,6.47266,0.96582,6.47266,4.94336v1.93457
	h-10.47461v0.69531c0,1.21387,0.85352,1.55078,2.65234,1.55078h1.32617c2.33594,0,2.45117-0.62891,2.45117-1.30469h4.04492v0.49805
	c0,2.87598-2.56055,3.50488-5.6875,3.50488h-3.24023c-2.84961,0-5.86523-0.53809-5.86523-5.44043V42.6416z M121.95557,41.6748
	c0-1.37109-0.63086-1.61816-3.15039-1.61816c-2.80859,0-3.14453,0.24707-3.14453,1.61816H121.95557z"/>
<path d="M128.40674,37.54004h4.04688v2.17871h0.04102c0.49609-1.82031,2.25195-2.3584,4.20508-2.3584
	c3.14648,0,4.38281,1.34766,4.38281,4.51855c0,0.29102-0.01953,0.60547-0.04102,1.01074h-3.73438
	c0-1.46094-0.33789-2.15723-2.06836-2.15723c-1.48438,0-2.51953,0.56055-2.51953,1.92969v6.34082h-4.3125V37.54004z"/>
</svg>
