<?xml version="1.0" encoding="utf-8"?>
<!-- Generator: Adobe Illustrator 18.0.0, SVG Export Plug-In . SVG Version: 6.00 Build 0)  -->
<!DOCTYPE svg PUBLIC "-//W3C//DTD SVG 1.1//EN" "http://www.w3.org/Graphics/SVG/1.1/DTD/svg11.dtd">
<svg version="1.1" id="Layer_1" xmlns="http://www.w3.org/2000/svg" xmlns:xlink="http://www.w3.org/1999/xlink" x="0px" y="0px"
	 width="263.33px" height="42.67px" viewBox="0 0 263.33 42.67" enable-background="new 0 0 263.33 42.67" xml:space="preserve">
<path fill="#EE3524" d="M46.1,23.5c-1,3.61-2.63,8.72-5.95,9.34c-3.08,0.56-8.9-2.56-18.79-20.65C19.07,8.01,16.41,6,13.54,6.21
	C6.07,6.74,0.25,22.66,0,23.33l0.1,0.33v5l1.57-4.68C3.28,19.66,8.5,8.38,13.75,8c2.11-0.15,4.09,1.55,6.01,5.05
	C27.71,27.59,34.1,34.7,39.33,34.7c0.34,0,0.83-0.03,1.16-0.09c2.53-0.47,3.61-2.65,5.61-5.23V23.5z"/>
<g>
	<path fill="#949699" d="M9.28,23.75l1,2.23c0.91-0.41,1.79-0.67,2.62-0.77l-0.29-2.43C11.54,22.91,10.42,23.24,9.28,23.75z"/>
	<path fill="#949699" d="M4.67,26.73l1.56,1.88c0.81-0.67,1.61-1.25,2.38-1.73l-1.29-2.07C6.45,25.34,5.56,25.99,4.67,26.73z"/>
	<path fill="#949699" d="M20.14,25.69l-1.77,1.68c0.59,0.62,1.17,1.39,1.71,2.28l2.09-1.27C21.54,27.34,20.86,26.44,20.14,25.69z"/>
	<path fill="#949699" d="M46.1,34.29c-1,0.44-1.18,0.86-1.79,1.24l1.35,2.08c0.13-0.08,0.44-0.17,0.44-0.25V34.29z"/>
	<path fill="#949699" d="M0.82,30.47l1.81,1.64c0.7-0.78,1.41-1.51,2.11-2.16l-1.68-1.77C2.31,28.87,1.56,29.64,0.82,30.47z"/>
	<path fill="#949699" d="M0.1,35.78c0-0.74,1.12-1.46,1.69-2.14l-1.69-1.4V35.78z"/>
	<path fill="#949699" d="M14.63,25.23c0.83,0.13,1.63,0.46,2.37,0.96l1.37-2.02c-1.04-0.71-2.17-1.16-3.35-1.35L14.63,25.23z"/>
	<path fill="#949699" d="M34.94,37.62l-0.21,2.43c0.52,0.04,1.03,0.07,1.54,0.07c0.59,0,1.2-0.03,1.8-0.09l-0.24-2.43
		C36.86,37.7,35.91,37.7,34.94,37.62z"/>
	<path fill="#949699" d="M23.21,30.14l-2.06,1.32c0.61,0.95,1.27,1.83,1.98,2.63l1.83-1.61C24.34,31.76,23.75,30.98,23.21,30.14z"/>
	<path fill="#949699" d="M39.72,37.29l0.54,2.38c1.1-0.25,2.16-0.59,3.17-1.03l-0.97-2.24C41.59,36.78,40.67,37.08,39.72,37.29z"/>
	<path fill="#949699" d="M29.34,38.69c1.02,0.45,2.09,0.79,3.18,1.03l0.52-2.39c-0.94-0.21-1.85-0.5-2.73-0.88L29.34,38.69z"/>
	<path fill="#949699" d="M24.68,35.66c0.84,0.75,1.74,1.43,2.68,1.99l1.26-2.09c-0.81-0.49-1.58-1.07-2.31-1.72L24.68,35.66z"/>
</g>
<g>
	<path fill="#5A5B5D" d="M67.6,26.34c-0.94-0.62-1.96-0.92-3.7-0.92c-3.1,0-5.16,2.25-5.16,5.26c0,3.16,2.27,5.26,5.06,5.26
		c1.33,0,1.68-0.13,2.16-0.23v-4.08h-2.83v-1.58h4.76v6.99c-0.73,0.25-2,0.6-4.1,0.6c-4.26,0-7.09-2.73-7.09-7.01
		c0-4.14,3-6.89,7.11-6.89c1.96,0,2.83,0.29,3.95,0.67L67.6,26.34z"/>
	<path fill="#5A5B5D" d="M71.37,23.96h3.29c2.66,0,5.22,0.42,5.22,3.64c0,1.64-1.21,2.79-2.77,3.06v0.04
		c0.6,0.23,0.89,0.52,1.31,1.35l2.54,5.35h-2.2l-2.06-4.66c-0.6-1.31-1.23-1.31-2.25-1.31h-1.16v5.97h-1.93V23.96z M73.29,29.73
		h1.64c1.83,0,2.91-0.81,2.91-2.1c0-1.21-0.92-1.98-2.7-1.98h-1.85V29.73z"/>
	<path fill="#5A5B5D" d="M87.31,23.96h2.02l5.68,13.44h-2.1l-1.37-3.39h-6.59l-1.37,3.39h-2.02L87.31,23.96z M88.25,25.77
		l-2.68,6.66h5.35L88.25,25.77z"/>
	<path fill="#5A5B5D" d="M96.64,23.96h3.52c2.75,0,5.04,0.96,5.04,4.02c0,2.98-2.33,4.04-4.76,4.04h-1.89v5.37h-1.93V23.96z
		 M98.57,30.33h1.91c1.19,0,2.7-0.6,2.7-2.37c0-1.69-1.77-2.31-2.96-2.31h-1.64V30.33z"/>
	<path fill="#5A5B5D" d="M107.75,23.96h1.92v5.62h6.43v-5.62h1.92V37.4h-1.92v-6.12h-6.43v6.12h-1.92V23.96z"/>
	<path fill="#5A5B5D" d="M121.75,23.96h1.93V37.4h-1.93V23.96z"/>
	<path fill="#5A5B5D" d="M136.57,26.17c-0.85-0.5-1.79-0.75-2.77-0.75c-3.1,0-5.16,2.23-5.16,5.26c0,3.16,2.27,5.26,5.06,5.26
		c0.96,0,2.25-0.25,2.93-0.65l0.12,1.87c-1.02,0.42-2.27,0.48-3.06,0.48c-4.26,0-7.09-2.73-7.09-7.01c0-4.14,3-6.89,7.11-6.89
		c1.04,0,2.06,0.15,3.02,0.58L136.57,26.17z"/>
	<path fill="#5A5B5D" d="M143.5,23.96h2.02l5.68,13.44h-2.1l-1.37-3.39h-6.59l-1.37,3.39h-2.02L143.5,23.96z M144.44,25.77
		l-2.68,6.66h5.35L144.44,25.77z"/>
	<path fill="#5A5B5D" d="M153.31,23.96h1.93V35.7h5.62v1.69h-7.55V23.96z"/>
	<path fill="#5A5B5D" d="M172.95,23.96h2.02l5.68,13.44h-2.1l-1.37-3.39h-6.59l-1.37,3.39h-2.02L172.95,23.96z M173.9,25.77
		l-2.68,6.66h5.35L173.9,25.77z"/>
	<path fill="#5A5B5D" d="M182.77,23.96h2.62l5.93,10.82h0.04V23.96h1.93V37.4h-2.46l-6.08-11.05h-0.04V37.4h-1.93V23.96z"/>
	<path fill="#5A5B5D" d="M200.75,23.96h2.02l5.68,13.44h-2.1l-1.37-3.39h-6.59l-1.37,3.39h-2.02L200.75,23.96z M201.69,25.77
		l-2.68,6.66h5.35L201.69,25.77z"/>
	<path fill="#5A5B5D" d="M210.56,23.96h1.93V35.7h5.62v1.69h-7.55V23.96z"/>
	<path fill="#5A5B5D" d="M222,31.77l-5.26-7.82H219l4,6.03l3.91-6.03h2.25l-5.24,7.82v5.62H222V31.77z"/>
	<path fill="#5A5B5D" d="M237,25.98c-0.98-0.39-1.52-0.56-2.52-0.56c-1.08,0-2.35,0.39-2.35,1.79c0,2.58,5.78,1.98,5.78,6.41
		c0,2.87-2.21,4.01-4.91,4.01c-0.94,0-1.87-0.27-2.75-0.56l0.19-1.79c0.65,0.27,1.81,0.65,2.79,0.65c1.1,0,2.64-0.62,2.64-2.2
		c0-3-5.78-2.18-5.78-6.35c0-2.39,1.89-3.66,4.31-3.66c0.89,0,1.94,0.15,2.87,0.48L237,25.98z"/>
	<path fill="#5A5B5D" d="M240.71,23.96h1.93V37.4h-1.93V23.96z"/>
	<path fill="#5A5B5D" d="M252.36,25.98c-0.98-0.39-1.52-0.56-2.52-0.56c-1.08,0-2.35,0.39-2.35,1.79c0,2.58,5.78,1.98,5.78,6.41
		c0,2.87-2.21,4.01-4.91,4.01c-0.94,0-1.87-0.27-2.75-0.56l0.19-1.79c0.65,0.27,1.81,0.65,2.79,0.65c1.1,0,2.64-0.62,2.64-2.2
		c0-3-5.78-2.18-5.78-6.35c0-2.39,1.89-3.66,4.31-3.66c0.89,0,1.94,0.15,2.87,0.48L252.36,25.98z"/>
	<path fill="#5A5B5D" d="M255.79,24.62h-1.28v-0.7h3.32v0.7h-1.28v3.46h-0.76V24.62z M258.81,23.92h1.18l1.09,2.81l1.07-2.81h1.18
		v4.16h-0.76V24.9h-0.02l-1.17,3.18h-0.62l-1.17-3.18h-0.02v3.18h-0.76V23.92z"/>
</g>
<g>
</g>
<g>
</g>
<g>
</g>
<g>
</g>
<g>
</g>
<g>
</g>
</svg>
