<?xml version="1.0" encoding="utf-8"?>
<!-- Generator: Adobe Illustrator 21.0.2, SVG Export Plug-In . SVG Version: 6.00 Build 0)  -->
<svg version="1.1" id="Layer_1" xmlns="http://www.w3.org/2000/svg" xmlns:xlink="http://www.w3.org/1999/xlink" x="0px" y="0px"
	 width="279.5px" height="14px" viewBox="0 0 279.5 14" enable-background="new 0 0 279.5 14" xml:space="preserve">
<g>
	<path fill="#FFFFFF" d="M7.4,13.7H5L-0.1,0.2h2.2L6.2,12h0l4.3-11.8h2L7.4,13.7z"/>
	<path fill="#FFFFFF" d="M14.5,0.2H22v1.7h-5.6v3.9h5.1v1.7h-5.1V12H22v1.7h-7.5C14.5,13.7,14.5,0.2,14.5,0.2z"/>
	<path fill="#FFFFFF" d="M25,0.2h3.3c2.7,0,5.2,0.4,5.2,3.6c0,1.6-1.2,2.8-2.8,3.1v0c0.6,0.2,0.9,0.5,1.3,1.3l2.5,5.4h-2.2L30.3,9
		c-0.6-1.3-1.2-1.3-2.3-1.3h-1.2v6H25C25,13.7,25,0.2,25,0.2z M26.9,6h1.6c1.8,0,2.9-0.8,2.9-2.1c0-1.2-0.9-2-2.7-2h-1.9L26.9,6
		L26.9,6z"/>
	<path fill="#FFFFFF" d="M36.8,0.2h2.6l5.9,10.8h0V0.2h1.9v13.5h-2.5L38.8,2.6h0v11.1h-1.9L36.8,0.2L36.8,0.2z"/>
	<path fill="#FFFFFF" d="M50.8,0.2h1.9v13.5h-1.9V0.2z"/>
	<path fill="#FFFFFF" d="M56.2,0.2h7.5v1.7h-5.6v3.9h5.1v1.7h-5.1V12h5.6v1.7h-7.5V0.2z"/>
	<path fill="#FFFFFF" d="M66.7,0.2H70c2.7,0,5.2,0.4,5.2,3.6c0,1.6-1.2,2.8-2.8,3.1v0c0.6,0.2,0.9,0.5,1.3,1.3l2.5,5.4h-2.2L72.1,9
		c-0.6-1.3-1.2-1.3-2.3-1.3h-1.2v6h-1.9C66.7,13.7,66.7,0.2,66.7,0.2z M68.6,6h1.6c1.8,0,2.9-0.8,2.9-2.1c0-1.2-0.9-2-2.7-2h-1.9
		L68.6,6L68.6,6z"/>
	<path fill="#FFFFFF" d="M94.2,2.6c-0.9-0.6-2-0.9-3.7-0.9c-3.1,0-5.2,2.3-5.2,5.3c0,3.2,2.3,5.3,5.1,5.3c1.3,0,1.7-0.1,2.2-0.2V7.9
		h-2.8V6.3h4.8v7c-0.7,0.3-2,0.6-4.1,0.6c-4.3,0-7.1-2.7-7.1-7c0-4.1,3-6.9,7.1-6.9c2,0,2.8,0.3,4,0.7L94.2,2.6z"/>
	<path fill="#FFFFFF" d="M97.8,0.2h3.3c2.7,0,5.2,0.4,5.2,3.6c0,1.6-1.2,2.8-2.8,3.1v0c0.6,0.2,0.9,0.5,1.3,1.3l2.5,5.4h-2.2
		L103.1,9c-0.6-1.3-1.2-1.3-2.3-1.3h-1.2v6h-1.9L97.8,0.2L97.8,0.2z M99.7,6h1.6c1.8,0,2.9-0.8,2.9-2.1c0-1.2-0.9-2-2.7-2h-1.9V6z"
		/>
	<path fill="#FFFFFF" d="M113.9,0.2h2l5.7,13.5h-2.1l-1.4-3.4h-6.6l-1.4,3.4h-2L113.9,0.2z M114.9,2l-2.7,6.7h5.4L114.9,2z"/>
	<path fill="#FFFFFF" d="M123.4,0.2h3.5c2.8,0,5,1,5,4c0,3-2.3,4-4.8,4h-1.9v5.4h-1.9V0.2z M125.4,6.6h1.9c1.2,0,2.7-0.6,2.7-2.4
		c0-1.7-1.8-2.3-3-2.3h-1.6L125.4,6.6L125.4,6.6z"/>
	<path fill="#FFFFFF" d="M134.4,0.2h1.9v5.6h6.4V0.2h1.9v13.5h-1.9V7.6h-6.4v6.1h-1.9V0.2z"/>
	<path fill="#FFFFFF" d="M148.2,0.2h1.9v13.5h-1.9V0.2z"/>
	<path fill="#FFFFFF" d="M162.8,2.4c-0.8-0.5-1.8-0.8-2.8-0.8c-3.1,0-5.2,2.2-5.2,5.3c0,3.2,2.3,5.3,5.1,5.3c1,0,2.3-0.3,2.9-0.7
		l0.1,1.9c-1,0.4-2.3,0.5-3.1,0.5c-4.3,0-7.1-2.7-7.1-7c0-4.1,3-6.9,7.1-6.9c1,0,2.1,0.2,3,0.6L162.8,2.4z"/>
	<path fill="#FFFFFF" d="M169.6,0.2h2l5.7,13.5h-2.1l-1.4-3.4h-6.6l-1.4,3.4h-2L169.6,0.2z M170.5,2l-2.7,6.7h5.4L170.5,2z"/>
	<path fill="#FFFFFF" d="M179.2,0.2h1.9V12h5.6v1.7h-7.6V0.2z"/>
	<path fill="#FFFFFF" d="M198.5,0.2h2l5.7,13.5h-2.1l-1.4-3.4h-6.6l-1.4,3.4h-2L198.5,0.2z M199.4,2l-2.7,6.7h5.4L199.4,2z"/>
	<path fill="#FFFFFF" d="M208.1,0.2h2.6l5.9,10.8h0V0.2h1.9v13.5h-2.5l-6.1-11.1h0v11.1h-1.9V0.2z"/>
	<path fill="#FFFFFF" d="M226.3,0.2h2l5.7,13.5h-2.1l-1.4-3.4H224l-1.4,3.4h-2L226.3,0.2z M227.3,2l-2.7,6.7h5.4L227.3,2z"/>
	<path fill="#FFFFFF" d="M235.9,0.2h1.9V12h5.6v1.7h-7.6V0.2z"/>
	<path fill="#FFFFFF" d="M247.6,8.1l-5.3-7.8h2.3l4,6l3.9-6h2.3l-5.2,7.8v5.6h-1.9L247.6,8.1L247.6,8.1z"/>
	<path fill="#FFFFFF" d="M262.8,2.3c-1-0.4-1.5-0.6-2.5-0.6c-1.1,0-2.4,0.4-2.4,1.8c0,2.6,5.8,2,5.8,6.4c0,2.9-2.2,4-4.9,4
		c-0.9,0-1.9-0.3-2.8-0.6l0.2-1.8c0.7,0.3,1.8,0.7,2.8,0.7c1.1,0,2.6-0.6,2.6-2.2c0-3-5.8-2.2-5.8-6.4c0-2.4,1.9-3.7,4.3-3.7
		c0.9,0,1.9,0.2,2.9,0.5L262.8,2.3z"/>
	<path fill="#FFFFFF" d="M266.3,0.2h1.9v13.5h-1.9V0.2z"/>
	<path fill="#FFFFFF" d="M277.8,2.3c-1-0.4-1.5-0.6-2.5-0.6c-1.1,0-2.4,0.4-2.4,1.8c0,2.6,5.8,2,5.8,6.4c0,2.9-2.2,4-4.9,4
		c-0.9,0-1.9-0.3-2.8-0.6l0.2-1.8c0.7,0.3,1.8,0.7,2.8,0.7c1.1,0,2.6-0.6,2.6-2.2c0-3-5.8-2.2-5.8-6.4c0-2.4,1.9-3.7,4.3-3.7
		c0.9,0,1.9,0.2,2.9,0.5L277.8,2.3z"/>
</g>
</svg>
