<?xml version="1.0" encoding="utf-8"?>
<!-- Generator: Adobe Illustrator 18.1.1, SVG Export Plug-In . SVG Version: 6.00 Build 0)  -->
<!DOCTYPE svg PUBLIC "-//W3C//DTD SVG 1.1//EN" "http://www.w3.org/Graphics/SVG/1.1/DTD/svg11.dtd">
<svg version="1.1" id="Layer_2" xmlns="http://www.w3.org/2000/svg" xmlns:xlink="http://www.w3.org/1999/xlink" x="0px" y="0px"
	 width="261px" height="13px" viewBox="0 0 261 13" enable-background="new 0 0 261 13" xml:space="preserve">
<g>
	<path fill="#000000" d="M6.986,12.784H4.735L0,0.216h2.017l3.871,10.983h0.036L9.903,0.216h1.891L6.986,12.784z"/>
	<path fill="#000000" d="M13.59,0.216h7.04V1.8h-5.239v3.673h4.771v1.584h-4.771v4.141h5.239v1.584h-7.04V0.216z"/>
	<path fill="#000000" d="M23.4,0.216h3.079c2.485,0,4.879,0.396,4.879,3.403c0,1.53-1.134,2.611-2.593,2.863v0.036
		c0.558,0.216,0.829,0.486,1.225,1.26l2.376,5.005h-2.052l-1.927-4.357c-0.558-1.224-1.152-1.224-2.106-1.224h-1.081v5.582h-1.8
		V0.216z M25.201,5.618h1.53c1.711,0,2.719-0.756,2.719-1.963c0-1.134-0.864-1.854-2.521-1.854h-1.729V5.618z"/>
	<path fill="#000000" d="M34.488,0.216h2.449l5.546,10.119h0.036V0.216h1.801v12.568h-2.305l-5.69-10.335h-0.036v10.335h-1.8V0.216z
		"/>
	<path fill="#000000" d="M47.502,0.216h1.8v12.568h-1.8V0.216z"/>
	<path fill="#000000" d="M52.596,0.216h7.04V1.8h-5.239v3.673h4.771v1.584h-4.771v4.141h5.239v1.584h-7.04V0.216z"/>
	<path fill="#000000" d="M62.406,0.216h3.079c2.485,0,4.879,0.396,4.879,3.403c0,1.53-1.134,2.611-2.593,2.863v0.036
		c0.558,0.216,0.829,0.486,1.225,1.26l2.376,5.005H69.32l-1.927-4.357c-0.558-1.224-1.152-1.224-2.106-1.224h-1.081v5.582h-1.8
		V0.216z M64.207,5.618h1.53c1.711,0,2.719-0.756,2.719-1.963c0-1.134-0.864-1.854-2.521-1.854h-1.729V5.618z"/>
	<path fill="#000000" d="M88.059,2.449c-0.882-0.576-1.837-0.864-3.457-0.864c-2.899,0-4.826,2.106-4.826,4.916
		c0,2.953,2.125,4.916,4.735,4.916c1.243,0,1.566-0.126,2.017-0.216V7.382h-2.646V5.906h4.447v6.536
		C87.645,12.676,86.457,13,84.494,13c-3.979,0-6.626-2.557-6.626-6.554C77.868,2.575,80.677,0,84.512,0
		c1.836,0,2.647,0.27,3.691,0.63L88.059,2.449z"/>
	<path fill="#000000" d="M91.404,0.216h3.079c2.485,0,4.879,0.396,4.879,3.403c0,1.53-1.134,2.611-2.593,2.863v0.036
		c0.559,0.216,0.829,0.486,1.225,1.26l2.376,5.005h-2.052l-1.927-4.357c-0.558-1.224-1.152-1.224-2.106-1.224h-1.081v5.582h-1.8
		V0.216z M93.204,5.618h1.531c1.71,0,2.719-0.756,2.719-1.963c0-1.134-0.864-1.854-2.521-1.854h-1.729V5.618z"/>
	<path fill="#000000" d="M106.488,0.216h1.891l5.312,12.568h-1.962l-1.278-3.169h-6.158l-1.278,3.169h-1.891L106.488,0.216z
		 M107.371,1.909l-2.503,6.229h5.006L107.371,1.909z"/>
	<path fill="#000000" d="M115.397,0.216h3.295c2.575,0,4.717,0.9,4.717,3.763c0,2.791-2.179,3.781-4.447,3.781h-1.765v5.023h-1.8
		V0.216z M117.198,6.176h1.783c1.116,0,2.521-0.558,2.521-2.215c0-1.584-1.656-2.161-2.773-2.161h-1.53V6.176z"/>
	<path fill="#000000" d="M125.603,0.216h1.801v5.258h6.014V0.216h1.801v12.568h-1.801V7.058h-6.014v5.726h-1.801V0.216z"/>
	<path fill="#000000" d="M138.509,0.216h1.8v12.568h-1.8V0.216z"/>
	<path fill="#000000" d="M152.192,2.287c-0.792-0.468-1.675-0.702-2.593-0.702c-2.898,0-4.825,2.088-4.825,4.916
		c0,2.953,2.124,4.916,4.735,4.916c0.9,0,2.106-0.234,2.736-0.612l0.108,1.747c-0.954,0.396-2.125,0.45-2.863,0.45
		c-3.979,0-6.626-2.557-6.626-6.554c0-3.871,2.81-6.446,6.645-6.446c0.972,0,1.927,0.144,2.827,0.54L152.192,2.287z"/>
	<path fill="#000000" d="M158.49,0.216h1.891l5.312,12.568h-1.962l-1.278-3.169h-6.158l-1.278,3.169h-1.891L158.49,0.216z
		 M159.373,1.909l-2.503,6.229h5.006L159.373,1.909z"/>
	<path fill="#000000" d="M167.489,0.216h1.8v10.983h5.258v1.584h-7.058V0.216z"/>
	<path fill="#000000" d="M185.49,0.216h1.891l5.312,12.568h-1.962l-1.278-3.169h-6.158l-1.278,3.169h-1.891L185.49,0.216z
		 M186.373,1.909l-2.503,6.229h5.006L186.373,1.909z"/>
	<path fill="#000000" d="M194.489,0.216h2.448l5.546,10.119h0.036V0.216h1.801v12.568h-2.305l-5.69-10.335h-0.036v10.335h-1.8V0.216
		z"/>
	<path fill="#000000" d="M211.481,0.216h1.891l5.312,12.568h-1.962l-1.278-3.169h-6.158l-1.278,3.169h-1.891L211.481,0.216z
		 M212.364,1.909l-2.503,6.229h5.006L212.364,1.909z"/>
	<path fill="#000000" d="M220.48,0.216h1.8v10.983h5.258v1.584h-7.058V0.216z"/>
	<path fill="#000000" d="M231.353,7.526l-4.915-7.31h2.106l3.745,5.636l3.655-5.636h2.106l-4.897,7.31v5.258h-1.801V7.526z"/>
	<path fill="#000000" d="M245.555,2.106c-0.918-0.36-1.422-0.522-2.358-0.522c-1.008,0-2.196,0.36-2.196,1.674
		c0,2.413,5.401,1.854,5.401,5.996c0,2.683-2.07,3.745-4.592,3.745c-0.882,0-1.746-0.252-2.574-0.522l0.18-1.674
		c0.612,0.252,1.692,0.612,2.611,0.612c1.026,0,2.467-0.576,2.467-2.053c0-2.809-5.402-2.035-5.402-5.942
		c0-2.233,1.765-3.421,4.033-3.421c0.828,0,1.818,0.144,2.683,0.45L245.555,2.106z"/>
	<path fill="#000000" d="M248.848,0.216h1.8v12.568h-1.8V0.216z"/>
	<path fill="#000000" d="M259.559,2.106c-0.918-0.36-1.422-0.522-2.358-0.522c-1.008,0-2.196,0.36-2.196,1.674
		c0,2.413,5.401,1.854,5.401,5.996c0,2.683-2.07,3.745-4.592,3.745c-0.882,0-1.746-0.252-2.574-0.522l0.18-1.674
		c0.612,0.252,1.692,0.612,2.611,0.612c1.026,0,2.467-0.576,2.467-2.053c0-2.809-5.402-2.035-5.402-5.942
		c0-2.233,1.765-3.421,4.033-3.421c0.828,0,1.818,0.144,2.683,0.45L259.559,2.106z"/>
</g>
</svg>
