<?xml version="1.0" encoding="utf-8"?>
<!-- Generator: Adobe Illustrator 20.0.0, SVG Export Plug-In . SVG Version: 6.00 Build 0)  -->
<svg version="1.1" id="Layer_1" xmlns="http://www.w3.org/2000/svg" xmlns:xlink="http://www.w3.org/1999/xlink" x="0px" y="0px"
	 viewBox="0 0 246.3 42.7" style="enable-background:new 0 0 246.3 42.7;" xml:space="preserve">
<style type="text/css">
	.st0{fill:#EE3524;}
	.st1{fill:url(#SVGID_1_);}
	.st2{fill:#949699;}
	.st3{enable-background:new    ;}
	.st4{fill:#5A5B5D;}
</style>
<title>logo-spec-app</title>
<path class="st0" d="M46.1,23.5c-1,3.6-2.6,8.7-6,9.3c-3.1,0.6-8.9-2.6-18.8-20.6c-2.3-4.2-4.9-6.2-7.8-6C6.1,6.7,0.2,22.7,0,23.3
	l0.1,0.3v5L1.7,24C3.3,19.7,8.5,8.4,13.8,8c2.1-0.2,4.1,1.6,6,5.1c7.9,14.5,14.3,21.7,19.6,21.7c0.4,0,0.8,0,1.2-0.1
	c2.5-0.5,3.6-2.6,5.6-5.2L46.1,23.5z"/>
<linearGradient id="SVGID_1_" gradientUnits="userSpaceOnUse" x1="0" y1="23.5525" x2="46.1" y2="23.5525" gradientTransform="matrix(1 0 0 -1 0 44)">
	<stop  offset="0" style="stop-color:#733562"/>
	<stop  offset="0.189" style="stop-color:#333391"/>
	<stop  offset="0.332" style="stop-color:#00A8DE"/>
	<stop  offset="0.46" style="stop-color:#009E54"/>
	<stop  offset="0.662" style="stop-color:#FDE92B"/>
	<stop  offset="0.9" style="stop-color:#EB2D2E"/>
</linearGradient>
<path class="st1" d="M46.1,23.5c-1,3.6-2.6,8.7-6,9.3c-3.1,0.6-8.9-2.6-18.8-20.6c-2.3-4.2-4.9-6.2-7.8-6C6.1,6.7,0.2,22.7,0,23.3
	l0.1,0.3v5L1.7,24C3.3,19.7,8.5,8.4,13.8,8c2.1-0.2,4.1,1.6,6,5.1c7.9,14.5,14.3,21.7,19.6,21.7c0.4,0,0.8,0,1.2-0.1
	c2.5-0.5,3.6-2.6,5.6-5.2L46.1,23.5z"/>
<path class="st2" d="M9.3,23.8l1,2.2c0.8-0.4,1.7-0.6,2.6-0.8l-0.3-2.4C11.5,22.9,10.3,23.3,9.3,23.8z"/>
<path class="st2" d="M4.7,26.7l1.6,1.9C7,28,7.8,27.4,8.6,26.9l-1.3-2.1C6.4,25.4,5.5,26,4.7,26.7z"/>
<path class="st2" d="M20.1,25.7l-1.8,1.7c0.6,0.7,1.2,1.5,1.7,2.3l2.1-1.3C21.6,27.4,20.9,26.5,20.1,25.7z"/>
<path class="st2" d="M46.1,34.3c-0.6,0.3-1.2,0.8-1.8,1.2l1.3,2.1c0.1-0.1,0.4-0.2,0.4-0.2L46.1,34.3z"/>
<path class="st2" d="M0.8,30.5l1.8,1.6C3.3,31.3,4,30.6,4.7,30l-1.7-1.8C2.3,28.9,1.6,29.6,0.8,30.5z"/>
<path class="st2" d="M0.1,35.8c0-0.7,1.1-1.5,1.7-2.1l-1.7-1.4V35.8z"/>
<path class="st2" d="M14.6,25.2c0.9,0.1,1.7,0.5,2.4,1l1.4-2c-1-0.7-2.1-1.2-3.4-1.4L14.6,25.2z"/>
<path class="st2" d="M34.9,37.6L34.7,40c0.5,0,1,0.1,1.5,0.1c0.6,0,1.2,0,1.8-0.1l-0.2-2.4C36.9,37.7,35.9,37.7,34.9,37.6z"/>
<path class="st2" d="M23.2,30.1l-2.1,1.3c0.6,0.9,1.3,1.8,2,2.6l1.8-1.6C24.3,31.7,23.7,31,23.2,30.1z"/>
<path class="st2" d="M39.7,37.3l0.5,2.4c1.1-0.2,2.1-0.6,3.2-1l-1-2.2C41.6,36.8,40.7,37.1,39.7,37.3z"/>
<path class="st2" d="M29.3,38.7c1,0.4,2.1,0.8,3.2,1l0.5-2.4c-0.9-0.2-1.8-0.5-2.7-0.9L29.3,38.7z"/>
<path class="st2" d="M24.7,35.7c0.8,0.7,1.7,1.4,2.7,2l1.3-2.1c-0.8-0.5-1.6-1.1-2.3-1.7L24.7,35.7z"/>
<g class="st3">
	<path class="st4" d="M63.5,26c-1-0.4-1.5-0.6-2.5-0.6c-1.1,0-2.4,0.4-2.4,1.8c0,2.6,5.8,2,5.8,6.4c0,2.9-2.2,4-4.9,4
		c-0.9,0-1.9-0.3-2.8-0.6l0.2-1.8c0.7,0.3,1.8,0.7,2.8,0.7c1.1,0,2.6-0.6,2.6-2.2c0-3-5.8-2.2-5.8-6.4c0-2.4,1.9-3.7,4.3-3.7
		c0.9,0,1.9,0.2,2.9,0.5L63.5,26z"/>
	<path class="st4" d="M66.9,23.9h3.5c2.8,0,5.1,1,5.1,4c0,3-2.3,4.1-4.8,4.1h-1.9v5.4h-1.9V23.9z M68.8,30.3h1.9
		c1.2,0,2.7-0.6,2.7-2.4c0-1.7-1.8-2.3-3-2.3h-1.6V30.3z"/>
	<path class="st4" d="M77.8,23.9h7.5v1.7h-5.6v3.9h5.1v1.7h-5.1v4.4h5.6v1.7h-7.5V23.9z"/>
	<path class="st4" d="M97.8,26.2c-0.8-0.5-1.8-0.8-2.8-0.8c-3.1,0-5.2,2.2-5.2,5.3c0,3.2,2.3,5.3,5.1,5.3c1,0,2.3-0.3,2.9-0.7
		l0.1,1.9c-1,0.4-2.3,0.5-3.1,0.5c-4.3,0-7.1-2.7-7.1-7c0-4.1,3-6.9,7.1-6.9c1,0,2.1,0.2,3,0.6L97.8,26.2z"/>
	<path class="st4" d="M102.9,25.6h-4.2v-1.7H109v1.7h-4.2v11.8h-1.9V25.6z"/>
	<path class="st4" d="M110.9,23.9h3.3c2.7,0,5.2,0.4,5.2,3.6c0,1.6-1.2,2.8-2.8,3.1v0c0.6,0.2,0.9,0.5,1.3,1.4l2.5,5.4h-2.2
		l-2.1-4.7c-0.6-1.3-1.2-1.3-2.3-1.3h-1.2v6h-1.9V23.9z M112.8,29.7h1.6c1.8,0,2.9-0.8,2.9-2.1c0-1.2-0.9-2-2.7-2h-1.9V29.7z"/>
	<path class="st4" d="M127,23.9h2l5.7,13.5h-2.1l-1.4-3.4h-6.6l-1.4,3.4h-2L127,23.9z M128,25.8l-2.7,6.7h5.4L128,25.8z"/>
	<path class="st4" d="M136.7,23.9h1.9v11.8h5.6v1.7h-7.6V23.9z"/>
	<path class="st4" d="M156,23.9h2l5.7,13.5h-2.1l-1.4-3.4h-6.6l-1.4,3.4h-2L156,23.9z M156.9,25.8l-2.7,6.7h5.4L156.9,25.8z"/>
	<path class="st4" d="M165.6,23.9h2.6l5.9,10.8h0V23.9h1.9v13.5h-2.5l-6.1-11.1h0v11.1h-1.9V23.9z"/>
	<path class="st4" d="M183.9,23.9h2l5.7,13.5h-2.1l-1.4-3.4h-6.6l-1.4,3.4h-2L183.9,23.9z M184.8,25.8l-2.7,6.7h5.4L184.8,25.8z"/>
</g>
<g class="st3">
	<path class="st4" d="M193.5,23.9h1.9v11.8h5.6v1.7h-7.6V23.9z"/>
</g>
<g class="st3">
	<path class="st4" d="M205.2,31.8l-5.3-7.8h2.3l4,6l3.9-6h2.3l-5.2,7.8v5.6h-1.9V31.8z"/>
	<path class="st4" d="M220.4,26c-1-0.4-1.5-0.6-2.5-0.6c-1.1,0-2.4,0.4-2.4,1.8c0,2.6,5.8,2,5.8,6.4c0,2.9-2.2,4-4.9,4
		c-0.9,0-1.9-0.3-2.8-0.6l0.2-1.8c0.7,0.3,1.8,0.7,2.8,0.7c1.1,0,2.6-0.6,2.6-2.2c0-3-5.8-2.2-5.8-6.4c0-2.4,1.9-3.7,4.3-3.7
		c0.9,0,2,0.2,2.9,0.5L220.4,26z"/>
	<path class="st4" d="M223.9,23.9h1.9v13.5h-1.9V23.9z"/>
	<path class="st4" d="M235.4,26c-1-0.4-1.5-0.6-2.5-0.6c-1.1,0-2.4,0.4-2.4,1.8c0,2.6,5.8,2,5.8,6.4c0,2.9-2.2,4-4.9,4
		c-0.9,0-1.9-0.3-2.8-0.6l0.2-1.8c0.7,0.3,1.8,0.7,2.8,0.7c1.1,0,2.6-0.6,2.6-2.2c0-3-5.8-2.2-5.8-6.4c0-2.4,1.9-3.7,4.3-3.7
		c0.9,0,2,0.2,2.9,0.5L235.4,26z"/>
</g>
<path class="st4" d="M238.8,24.6h-1.3v-0.7h3.3v0.7h-1.3v3.5h-0.8L238.8,24.6z M241.8,23.9h1.2l1.1,2.8l1.1-2.8h1.2v4.2h-0.8v-3.2h0
	l-1.2,3.2h-0.6l-1.2-3.2h0v3.2h-0.8V23.9z"/>
</svg>
