<?xml version="1.0" encoding="utf-8"?>
<!-- Generator: Adobe Illustrator 21.0.2, SVG Export Plug-In . SVG Version: 6.00 Build 0)  -->
<svg version="1.1" id="Layer_1" xmlns="http://www.w3.org/2000/svg" xmlns:xlink="http://www.w3.org/1999/xlink" x="0px" y="0px"
	 width="205px" height="14px" viewBox="0 0 205 14" enable-background="new 0 0 205 14" xml:space="preserve">
<g>
	<path fill="#5A5B5D" d="M10.8,2.6c-0.9-0.6-1.9-1-3.6-1C4,1.6,2,3.8,2,6.8C2,10,4.3,12,7,12c1.3,0,1.7-0.2,2.1-0.2v-4H6.4V6.2h4.7
		v6.9c-0.7,0.2-1.9,0.6-4,0.6C2.8,13.7,0,11,0,6.8C0,2.6,3,0,7,0C9,0,9.9,0.3,10.9,0.6L10.8,2.6z"/>
	<path fill="#5A5B5D" d="M14.5,0.1h3.2c2.6,0,5.2,0.4,5.2,3.6c0,1.6-1.2,2.8-2.8,3l0,0C20.7,6.9,21,7.2,21.4,8l2.5,5.3h-2.2l-2-4.4
		c-0.6-1.3-1.2-1.3-2.2-1.3h-1.1v5.9h-1.9V0.1L14.5,0.1z M16.4,5.9H18c1.8,0,2.9-0.8,2.9-2.1c0-1.2-0.9-1.9-2.7-1.9h-1.9
		C16.4,1.8,16.4,5.9,16.4,5.9z"/>
	<path fill="#5A5B5D" d="M30.3,0.1h2l5.6,13.3h-2.1l-1.4-3.3h-6.5l-1.4,3.3h-2L30.3,0.1z M31.2,2l-2.7,6.6h5.3L31.2,2z"/>
	<path fill="#5A5B5D" d="M39.5,0.1H43c2.8,0,5,1,5,4c0,2.9-2.3,4-4.7,4h-1.9v5.3h-1.9V0.1L39.5,0.1z M41.4,6.4h1.9
		c1.2,0,2.7-0.6,2.7-2.3c0-1.7-1.8-2.3-2.9-2.3h-1.6V6.4L41.4,6.4z"/>
	<path fill="#5A5B5D" d="M50.4,0.1h1.9v5.6h6.4V0.1h1.9v13.3h-1.9v-6h-6.4v6.1h-1.9V0.1z"/>
	<path fill="#5A5B5D" d="M64.3,0.1h1.9v13.3h-1.9V0.1z"/>
	<path fill="#5A5B5D" d="M78.9,2.3c-0.8-0.5-1.8-0.7-2.8-0.7c-3.1,0-5.1,2.2-5.1,5.2c0,3.2,2.3,5.2,5,5.2c1,0,2.2-0.2,2.9-0.6
		l0.1,1.9c-1,0.5-2.2,0.6-3,0.6c-4.2,0-7-2.7-7-7c0.1-4.1,3-6.8,7-6.8c1.1,0,2,0.2,3,0.6L78.9,2.3z"/>
	<path fill="#5A5B5D" d="M85.8,0.1h2l5.6,13.3h-2.1l-1.4-3.3h-6.5l-1.4,3.3h-1.9L85.8,0.1z M86.8,2l-2.7,6.6h5.3L86.8,2z"/>
	<path fill="#5A5B5D" d="M95.5,0.1h1.9v11.6h5.6v1.7h-7.5V0.1L95.5,0.1z"/>
	<path fill="#5A5B5D" d="M114.9,0.1h2l5.6,13.3h-2.1l-1.4-3.3h-6.5l-1.4,3.3h-2L114.9,0.1z M115.8,2l-2.7,6.6h5.3L115.8,2z"/>
	<path fill="#5A5B5D" d="M124.6,0.1h2.6l5.8,10.7l0,0V0.1h1.9v13.3h-2.4l-6-10.9l0,0v10.9h-1.9V0.1L124.6,0.1z"/>
	<path fill="#5A5B5D" d="M142.4,0.1h2l5.6,13.3h-2.1l-1.4-3.3H140l-1.4,3.3h-2L142.4,0.1z M143.3,2l-2.7,6.6h5.3L143.3,2z"/>
	<path fill="#5A5B5D" d="M152.1,0.1h1.9v11.6h5.6v1.7h-7.4L152.1,0.1L152.1,0.1z"/>
	<path fill="#5A5B5D" d="M163.4,7.9l-5.2-7.8h2.3l4,6l3.9-6h2.2l-5.2,7.8v5.6h-1.9L163.4,7.9L163.4,7.9z"/>
	<path fill="#5A5B5D" d="M178.2,2.1c-1-0.4-1.5-0.6-2.5-0.6c-1.1,0-2.3,0.4-2.3,1.8c0,2.6,5.7,1.9,5.7,6.3c0,2.8-2.2,4-4.9,4
		c-0.9,0-1.9-0.2-2.8-0.6l0.2-1.8c0.6,0.2,1.8,0.6,2.8,0.6c1.1,0,2.6-0.6,2.6-2.2c0-3-5.7-2.2-5.7-6.3c0-2.3,1.9-3.6,4.3-3.6
		c0.9,0,1.9,0.2,2.8,0.5L178.2,2.1z"/>
	<path fill="#5A5B5D" d="M181.9,0.1h1.9v13.3h-1.9V0.1z"/>
	<path fill="#5A5B5D" d="M193.4,2.1c-1-0.4-1.5-0.6-2.5-0.6c-1.1,0-2.3,0.4-2.3,1.8c0,2.6,5.7,1.9,5.7,6.3c0,2.8-2.2,4-4.9,4
		c-0.9,0-1.9-0.2-2.8-0.6l0.2-1.8c0.6,0.2,1.8,0.6,2.8,0.6c1.1,0,2.6-0.6,2.6-2.2c0-3-5.7-2.2-5.7-6.3c0-2.3,1.9-3.6,4.3-3.6
		c0.9,0,1.9,0.2,2.8,0.5L193.4,2.1z"/>
	<path fill="#5A5B5D" d="M196.7,0.9h-1.3V0.1h3.3v0.7h-1.3v3.4h-0.7V0.9z M199.7,0.1h1.1l1.1,2.8l1.1-2.8h1.1v4.1h-0.7V1.1l0,0
		l-1.1,3.2h-0.6l-1.1-3.2l0,0v3.2h-0.7L199.7,0.1L199.7,0.1z"/>
</g>
</svg>
