<?xml version="1.0" encoding="UTF-8"?>
<svg width="658px" height="417px" viewBox="0 0 658 417" version="1.1" xmlns="http://www.w3.org/2000/svg" xmlns:xlink="http://www.w3.org/1999/xlink">
    <!-- Generator: Sketch 43.2 (39069) - http://www.bohemiancoding.com/sketch -->
    <title>Artboard 2 Copy 2</title>
    <desc>Created with Sketch.</desc>
    <defs></defs>
    <g id="Page-1" stroke="none" stroke-width="1" fill="none" fill-rule="evenodd">
        <g id="Artboard-2-Copy-2">
            <g id="Fill-3" transform="translate(429.000000, 2.000000)">
                <polygon fill="#3B3B3B" points="100.6434 308.4128 25.7064 316.3318 25.6194 97.3498 100.5564 89.4298"></polygon>
                <circle id="Oval" fill="#FFFFFF" cx="64" cy="278" r="10"></circle>
                <path d="M63.0597,23.2448 L100.5282,19.2853 L200.6952,94.7663 L125.7582,102.6853 L25.5917819,27.2047385 L0.8822,8.5848 L75.8192,0.6648 L100.5282,19.2848 L63.0597,23.2448 Z M226.2899,114.0534 L151.3529,121.9724 L125.7589,102.6854 L200.6949,94.7664 L226.2899,114.0534 Z" id="Combined-Shape" fill="#000000"></path>
                <path d="M226.4051,403.1804 L151.4671,411.1004 L151.3681,159.5194 L226.3041,151.5994 L226.4051,403.1804 Z M226.3046,151.5993 L151.3676,159.5193 L151.3536,121.9723 L226.2896,114.0533 L226.3046,151.5993 Z" id="Combined-Shape" fill="#3B3B3B"></path>
                <polygon id="Fill-16" fill="#7A7A7A" points="-0.0001 7.9196 0.8829 8.5846 25.5919 27.2046 125.7589 102.6856 151.3539 121.9726 151.3679 159.5196 151.4679 411.1006 125.8729 391.8136 125.7859 172.8296 25.6189 97.3496 25.7069 316.3316 0.1149 297.0476"></polygon>
            </g>
            <g id="Fill-3" transform="translate(3.000000, 2.000000)">
                <polygon fill="#3B3B3B" points="100.6434 308.4128 25.7064 316.3318 25.6194 97.3498 100.5564 89.4298"></polygon>
                <circle id="Oval" fill="#FFFFFF" cx="64" cy="278" r="10"></circle>
                <path d="M63.0597,23.2448 L100.5282,19.2853 L200.6952,94.7663 L125.7582,102.6853 L25.5917819,27.2047385 L0.8822,8.5848 L75.8192,0.6648 L100.5282,19.2848 L63.0597,23.2448 Z M226.2899,114.0534 L151.3529,121.9724 L125.7589,102.6854 L200.6949,94.7664 L226.2899,114.0534 Z" id="Combined-Shape" fill="#000000"></path>
                <path d="M226.4051,403.1804 L151.4671,411.1004 L151.3681,159.5194 L226.3041,151.5994 L226.4051,403.1804 Z M226.3046,151.5993 L151.3676,159.5193 L151.3536,121.9723 L226.2896,114.0533 L226.3046,151.5993 Z" id="Combined-Shape" fill="#3B3B3B"></path>
                <polygon id="Fill-16" fill="#7A7A7A" points="-0.0001 7.9196 0.8829 8.5846 25.5919 27.2046 125.7589 102.6856 151.3539 121.9726 151.3679 159.5196 151.4679 411.1006 125.8729 391.8136 125.7859 172.8296 25.6189 97.3496 25.7069 316.3316 0.1149 297.0476"></polygon>
            </g>
        </g>
    </g>
</svg>