<?xml version="1.0" encoding="UTF-8"?>
<svg width="364px" height="109px" viewBox="0 0 364 109" version="1.1" xmlns="http://www.w3.org/2000/svg" xmlns:xlink="http://www.w3.org/1999/xlink">
    <!-- Generator: Sketch 43.2 (39069) - http://www.bohemiancoding.com/sketch -->
    <title>Bar</title>
    <desc>Created with Sketch.</desc>
    <defs></defs>
    <g id="Page-1" stroke="none" stroke-width="1" fill="none" fill-rule="evenodd">
        <g id="Bar" fill-rule="nonzero">
            <g id="Group">
                <rect id="Rectangle-path" fill="#FFFFFF" x="0.69" y="0.69" width="28.9" height="107.62"></rect>
                <path d="M28.9,1.38 L28.9,107.62 L1.38,107.62 L1.38,1.38 L28.9,1.38 L28.9,1.38 Z M30.28,0 L0,0 L0,109 L30.28,109 L30.28,0 Z" id="Shape" fill="#000000"></path>
                <rect id="Rectangle-path" fill="#FFFFFF" x="333.74" y="0.69" width="28.9" height="107.62"></rect>
                <path d="M362,1.38 L362,107.62 L334.43,107.62 L334.43,1.38 L362,1.38 L362,1.38 Z M363.33,0 L333.06,0 L333.06,109 L363.33,109 L363.33,0 Z" id="Shape" fill="#000000"></path>
                <rect id="Rectangle-path" fill="#FFFFFF" x="212.63" y="0.69" width="59.18" height="107.62"></rect>
                <path d="M271.12,1.38 L271.12,107.62 L213.32,107.62 L213.32,1.38 L271.12,1.38 L271.12,1.38 Z M272.5,0 L211.94,0 L211.94,109 L272.5,109 L272.5,0 Z" id="Shape" fill="#000000"></path>
                <rect id="Rectangle-path" fill="#000000" x="30.97" y="0.69" width="59.18" height="107.62"></rect>
                <path d="M89.46,1.38 L89.46,107.62 L31.65,107.62 L31.65,1.38 L89.46,1.38 L89.46,1.38 Z M90.83,0 L30.28,0 L30.28,109 L90.83,109 L90.83,0 Z" id="Shape" fill="#000000"></path>
                <rect id="Rectangle-path" fill="#000000" x="273.19" y="0.69" width="59.18" height="107.62"></rect>
                <path d="M331.68,1.38 L331.68,107.62 L273.88,107.62 L273.88,1.38 L331.68,1.38 L331.68,1.38 Z M333.06,0 L272.5,0 L272.5,109 L333.06,109 L333.06,0 Z" id="Shape" fill="#000000"></path>
                <rect id="Rectangle-path" fill="#FFFFFF" x="91.52" y="0.69" width="59.18" height="107.62"></rect>
                <path d="M150,1.38 L150,107.62 L92.2,107.62 L92.2,1.38 L150,1.38 L150,1.38 Z M151.39,0 L90.83,0 L90.83,109 L151.39,109 L151.39,0 Z" id="Shape" fill="#000000"></path>
                <rect id="Rectangle-path" fill="#000000" x="152.08" y="0.69" width="59.18" height="107.62"></rect>
                <path d="M210.57,1.38 L210.57,107.62 L152.77,107.62 L152.77,1.38 L210.57,1.38 L210.57,1.38 Z M211.94,0 L151.39,0 L151.39,109 L211.94,109 L211.94,0 Z" id="Shape" fill="#000000"></path>
            </g>
        </g>
    </g>
</svg>